<?xml version="1.0" encoding="utf-8"?>
<!-- Generator: Adobe Illustrator 27.5.0, SVG Export Plug-In . SVG Version: 6.00 Build 0)  -->
<svg version="1.1" xmlns="http://www.w3.org/2000/svg" xmlns:xlink="http://www.w3.org/1999/xlink" x="0px" y="0px"
	 viewBox="0 0 500 500" style="enable-background:new 0 0 500 500;" xml:space="preserve">
<g id="Background_Complete">
	<g>
		<rect x="416.779" y="398.494" style="fill:#EBEBEB;" width="33.122" height="0.25"/>
		<rect x="322.527" y="401.208" style="fill:#EBEBEB;" width="8.693" height="0.25"/>
		<rect x="396.586" y="389.208" style="fill:#EBEBEB;" width="19.192" height="0.25"/>
		<rect x="52.459" y="390.888" style="fill:#EBEBEB;" width="43.193" height="0.25"/>
		<rect x="104.556" y="390.888" style="fill:#EBEBEB;" width="6.333" height="0.25"/>
		<rect x="131.471" y="395.111" style="fill:#EBEBEB;" width="93.676" height="0.25"/>
		<path style="fill:#EBEBEB;" d="M237.014,337.8H43.915c-3.147,0-5.708-2.561-5.708-5.708V60.66c0-3.147,2.561-5.708,5.708-5.708
			h193.099c3.146,0,5.707,2.561,5.707,5.708v271.432C242.721,335.239,240.16,337.8,237.014,337.8z M43.915,55.203
			c-3.01,0-5.458,2.448-5.458,5.458v271.432c0,3.01,2.448,5.458,5.458,5.458h193.099c3.009,0,5.457-2.448,5.457-5.458V60.66
			c0-3.009-2.448-5.458-5.457-5.458H43.915z"/>
		<path style="fill:#EBEBEB;" d="M453.31,337.8H260.212c-3.147,0-5.707-2.561-5.707-5.708V60.66c0-3.147,2.561-5.708,5.707-5.708
			H453.31c3.148,0,5.708,2.561,5.708,5.708v271.432C459.019,335.239,456.458,337.8,453.31,337.8z M260.212,55.203
			c-3.009,0-5.457,2.448-5.457,5.458v271.432c0,3.01,2.448,5.458,5.457,5.458H453.31c3.01,0,5.458-2.448,5.458-5.458V60.66
			c0-3.009-2.448-5.458-5.458-5.458H260.212z"/>
		<rect y="382.398" style="fill:#EBEBEB;" width="500" height="0.25"/>
	</g>
	<g>
		<g>
			<g>
				<g>
					<path style="fill:#EBEBEB;" d="M401.079,251.922c1.578-3.934,5.179-6.21,8.453-5.343c3.274,0.867,5.956,4.806,6.295,9.247
						c2.316-2.192,5.627-2.302,8.022-0.267c2.395,2.035,3.728,6.091,3.229,9.826c2.611-2.669,6.89-1.566,8.575,2.208
						c1.684,3.774,0.377,9.336-2.618,11.144c2.038,0.186,3.788,2.759,3.734,5.491c-0.054,2.732-1.903,5.178-3.946,5.22
						c2.066,0.059,3.966,2.359,4.215,5.102c0.25,2.743-1.181,5.586-3.176,6.307c2.098,1.178,2.629,5.543,0.919,7.55
						s-4.876,0.735-5.477-2.2c-0.32,0.848-1.309,1.046-1.801,0.361c-0.491-0.685-0.302-1.999,0.344-2.391
						c-0.945,1.685-3.358,0.904-3.622-1.173c0.71,4.809-3.824,9.334-7.068,7.053c0.936,2.009-0.386,4.813-2.093,5.439
						c-1.707,0.626-3.507-0.256-5.11-1.26c-1.603-1.003-3.242-2.171-5.012-2.139c-1.552,0.028-2.998,0.977-4.483,1.579
						c-4.718,1.914-10.173,0.092-13.664-4.565c-2.453,4.166-8.263,3.045-9.736-1.878c-0.379,2.362-2.029,4.25-3.832,4.384
						c-1.804,0.134-3.6-1.496-4.173-3.787c-0.037,1.053-0.074,2.105-0.111,3.158c-3.4,1.018-6.757-4.536-5.3-8.77
						c-2.427,0.056-4.723-2.596-5.037-5.815c-0.313-3.22,1.4-6.569,3.757-7.346c-4-1.421-7.052-6.67-7.095-12.206
						c-0.044-5.535,2.923-10.87,6.9-12.405c1.567-0.605,3.407-0.591,4.659,0.808c1.252,1.399,1.419,4.474,0.02,5.596
						c-1.202-4.963,0.582-10.909,4.015-13.385c3.433-2.477,8.127-1.203,10.567,2.867c-1.189-2.109-1.211-5.261-0.054-7.401
						c1.159-2.14,3.404-3.095,5.273-2.242c0.465-3.409,3.149-5.983,5.712-5.481c2.563,0.503,4.581,4,4.296,7.444
						c0.295-2.877,3.829-3.72,4.85-1.157C402.941,250.988,401.079,251.922,401.079,251.922z"/>
				</g>
			</g>
			<g>
				<g>
					<path style="fill:#FAFAFA;" d="M400.127,283.957c1.049-0.922,2.374-1.419,3.626-1.102c1.252,0.317,2.385,1.541,2.643,3.125
						c0.257,1.583-0.521,3.396-1.763,3.775c-1.51,0.462-3.022-1.113-4.561-0.838c-0.549,0.098-1.054,0.428-1.59,0.609
						c-2.211,0.748-4.402-1.08-6.237-2.81c-0.645-0.609-1.306-1.237-1.737-2.098c-0.431-0.86-0.591-2.016-0.185-2.896
						c0.565-1.226,1.903-1.406,3.017-1.245c2.235,0.324,4.393,1.465,6.145,3.25c-0.057-0.443-0.115-0.886-0.172-1.329
						L400.127,283.957z"/>
				</g>
				<g>
					<path style="fill:#FAFAFA;" d="M367.996,281.555c0.6-0.531,1.219-1.074,1.931-1.286c0.712-0.212,1.551-0.019,2.002,0.711
						c0.618,1,0.226,2.566-0.558,3.358c-0.784,0.792-1.825,1.013-2.817,1.207c-1.019,0.2-2.304,0.246-2.807-0.892
						c-0.367-0.829-0.072-1.926,0.476-2.576c0.548-0.65,1.288-0.96,2.003-1.25L367.996,281.555z"/>
				</g>
				<g>
					<path style="fill:#FAFAFA;" d="M418.756,260.407c2.047,1.082,3.627,3.477,4.104,6.218c0.144,0.827,0.124,1.867-0.448,2.307
						c-0.406,0.312-0.924,0.183-1.386,0.044c-1.961-0.589-3.922-1.178-5.883-1.767c0.939,0.457,1.9,0.931,2.65,1.78
						c0.75,0.849,1.254,2.166,1.008,3.401c-0.289,1.45-1.544,2.341-2.726,2.32c-1.181-0.021-2.281-0.764-3.241-1.635
						c-1.025-0.929-2.026-2.218-2.045-3.813c-0.02-1.595,1.568-3.074,2.536-2.052c-2.242-0.771-4.383-2.005-6.314-3.638
						c-0.699-0.591-1.387-1.257-1.827-2.162c-0.441-0.906-0.591-2.104-0.186-3.035c2.011-4.622,4.551,2.158,5.788,2.762
						C413.132,262.28,415.778,258.832,418.756,260.407z"/>
					<path style="fill:#FAFAFA;" d="M427.898,280.136c0.207,0.904,0.065,1.994-0.516,2.581c-0.581,0.587-1.611,0.39-1.879-0.488
						c1.313,0.519,2.715,1.116,3.534,2.515c0.818,1.399,0.616,3.845-0.691,4.386c-0.816,0.337-1.687-0.17-2.44-0.691
						c-2.131-1.475-4.165-3.171-6.077-5.067c0.584,1.706-0.821,3.64-2.284,3.798c-1.463,0.158-2.83-0.842-4.085-1.806
						c-1.539-1.184-3.304-2.991-2.899-5.211c0.352-1.932,2.306-2.788,3.808-2.221c1.502,0.567,2.632,2.1,3.684,3.57
						c-0.825-1.521,0.347-3.779,1.791-4.026c1.404-0.24,2.804,0.842,3.679,2.149c-1.635-1.136-2.001-4.097,0.189-4.44
						C425.137,274.961,427.554,278.633,427.898,280.136z"/>
					<path style="fill:#FAFAFA;" d="M383.009,273.491c1.235-0.584,2.783,0.433,3.116,2.048c0.333,1.615-0.626,3.459-1.929,3.712
						c0.958,0.104,1.876,0.71,2.493,1.644c0.343,0.52,0.601,1.187,0.524,1.857c-0.115,1.002-0.958,1.659-1.758,1.696
						c-0.8,0.036-1.561-0.392-2.289-0.812c0.789,0.094,1.626,0.21,2.252,0.825c0.626,0.615,0.898,1.917,0.336,2.624
						c-0.47,0.591-1.245,0.493-1.883,0.267c-1.434-0.508-2.767-1.458-3.853-2.745c-0.816,1.144-2.025,1.969-3.227,1.72
						c-1.202-0.248-2.222-1.867-1.845-3.333c0.268-1.046,1.133-1.704,1.995-1.837c0.863-0.132,1.727,0.167,2.554,0.506
						c-0.845-0.76-1.742-1.608-2.052-2.861c-0.309-1.252,0.359-2.935,1.395-2.834c1.163,0.115,1.758,2.119,2.676,2.84
						C382.645,277.464,380.523,274.665,383.009,273.491z"/>
					<g>
						<path style="fill:#FAFAFA;" d="M403.967,267.368c1.323,1.134,1.781,3.369,1.689,5.389c-0.101,2.229-0.902,4.61-2.519,5.505
							c-2.126,1.176-4.783-1.062-5.173-3.957c-0.39-2.895,1.111-5.839,3.17-7.193C401.135,267.112,402.644,266.235,403.967,267.368z
							"/>
					</g>
					<g>
						<path style="fill:#FAFAFA;" d="M389.121,264.964c-0.183,0.2-0.365,0.398-0.547,0.598c0.902-1.445,2.806-1.635,3.876-0.387
							c1.07,1.247,1.077,3.664,0.013,4.92c-1.064,1.257-2.968,1.082-3.879-0.355c-1.535,0.902-3.559,0.551-4.639-1.098
							c-1.079-1.649-0.835-4.523,0.637-5.579c1.472-1.057,3.71,0.529,3.554,2.661c0.213-0.3,0.426-0.6,0.639-0.9L389.121,264.964z"
							/>
					</g>
					<g>
						<path style="fill:#FAFAFA;" d="M372.733,268.311c1.051,1.309,2.144,2.707,2.529,4.509c0.385,1.801-0.251,4.095-1.68,4.555
							c-1.42,0.456-2.767-1.025-3.577-2.57c-0.731-1.395-1.289-3.133-0.868-4.72c0.421-1.587,2.228-2.527,3.131-1.305
							L372.733,268.311z"/>
					</g>
					<path style="fill:#FAFAFA;" d="M396.348,257.429c0.536-1.51,2.232-2.038,3.342-1.164c1.111,0.875,1.52,2.846,1.035,4.384
						c-0.485,1.538-1.732,2.581-3.033,2.761c-1.611,0.223-3.515-1.423-3.152-3.423c-0.695,1.158-1.942,1.618-3.086,1.475
						c-1.144-0.142-2.205-0.799-3.201-1.524c-1.352-0.985-2.795-2.508-2.652-4.474c0.114-1.567,1.311-2.773,2.549-2.918
						c1.238-0.146,2.457,0.582,3.402,1.604c0.743,0.803,1.36,1.793,2.164,2.497c0.803,0.703,1.896,1.08,2.757,0.494L396.348,257.429
						z"/>
				</g>
			</g>
		</g>
		<path style="fill:#E0E0E0;" d="M391.89,303.245c3.041,8.905,1.494,19.246-4.02,26.871c5.937,0,11.256,0.405,17.193,0.405
			c-2.669-9.136-3.314-18.856-1.808-28.254C399.957,302.267,395.188,303.245,391.89,303.245z"/>
		<g>
			<g>
				<polygon style="fill:#EBEBEB;" points="370.798,382.899 422.186,382.899 427.217,331.108 365.767,331.108 				"/>
				<polygon style="fill:#F5F5F5;" points="361.787,333.78 431.705,333.78 432.963,326.891 360.53,326.891 				"/>
			</g>
		</g>
	</g>
	<g>
		
			<rect x="310.559" y="96.329" transform="matrix(-1 -1.224647e-16 1.224647e-16 -1 713.5235 303.4315)" style="fill:#F0F0F0;" width="92.407" height="110.774"/>
		<path style="fill:#E0E0E0;" d="M402.965,134.208c-8.927,4.485-29.97,14.389-41.725,14.389c0,0,2.296,17.217-1.502,58.505h-31.205
			c-0.848-6.887-3.461-28.665-4.029-40.024c-0.68-13.606-7.823-26.357-4.422-37.839c3.402-11.482,11.225-10.802,25.851-18.285
			c7.936-4.061,18.771-10.021,27.028-14.626h30.003V134.208z"/>
		<path style="fill:#FFFFFF;" d="M334.656,138.907c1.497-1.63,2.81-3.873,2.683-6.667c-0.095-2.087-2.269-3.5-4.249-2.833
			c-2.422,0.816-5.07,2.856-4.073,7.943C329.53,139.968,332.85,140.872,334.656,138.907z"/>
		<path style="fill:#FFFFFF;" d="M338.891,149.958c0,0,6.93-4.082,4.889-8.164c-2.041-4.082-7.483,4.082-12.019,4.082
			c-4.535,0,5.586,61.226,5.586,61.226h6.808C344.156,207.103,338.076,169.104,338.891,149.958z"/>
		<path style="fill:#FFFFFF;" d="M347.408,207.103h5.216c0,0-3.903-37.806-2.608-50.342c0.254-2.456,1.134-8.106-3.968-8.164
			c-5.102-0.057-0.454,10.885-0.454,10.885L347.408,207.103z"/>
		<path style="fill:#FFFFFF;" d="M351.716,123.88l51.249-26.518v12.28l-45.353,25.577c-7.241,18.17-14.059,0-14.059,0
			C329.493,122.52,351.716,123.88,351.716,123.88z"/>
	</g>
	<g>
		<g>
			
				<rect x="65.594" y="242.125" transform="matrix(-1 -1.224647e-16 1.224647e-16 -1 152.5102 625.0248)" style="fill:#E6E6E6;" width="21.322" height="140.774"/>
			
				<rect x="81.094" y="242.125" transform="matrix(-1 -1.224647e-16 1.224647e-16 -1 393.188 625.0248)" style="fill:#F5F5F5;" width="231" height="140.774"/>
			<polygon style="fill:#E0E0E0;" points="81.094,271.435 312.094,271.435 312.094,273.819 255.344,273.819 255.344,382.899 
				253.344,382.899 253.344,273.819 198.14,273.819 198.14,382.899 196.14,382.899 196.14,273.819 140.935,273.819 140.935,382.899 
				138.935,382.899 138.935,273.819 81.094,273.819 			"/>
			<g>
				<path style="fill:#E6E6E6;" d="M261.094,334.022L261.094,334.022c1.104,0,2-1.067,2-2.384v-10.729c0-1.317-0.896-2.384-2-2.384
					l0,0c-1.105,0-2,1.068-2,2.384v10.729C259.094,332.954,259.989,334.022,261.094,334.022z"/>
				<path style="fill:#E6E6E6;" d="M247.594,334.022L247.594,334.022c1.105,0,2-1.067,2-2.384v-10.729c0-1.317-0.895-2.384-2-2.384
					l0,0c-1.105,0-2,1.068-2,2.384v10.729C245.594,332.954,246.489,334.022,247.594,334.022z"/>
				<path style="fill:#E6E6E6;" d="M146.686,334.022L146.686,334.022c1.104,0,2-1.067,2-2.384v-10.729c0-1.317-0.896-2.384-2-2.384
					l0,0c-1.105,0-2,1.068-2,2.384v10.729C144.686,332.954,145.581,334.022,146.686,334.022z"/>
				<path style="fill:#E6E6E6;" d="M133.186,334.022L133.186,334.022c1.104,0,2-1.067,2-2.384v-10.729c0-1.317-0.896-2.384-2-2.384
					l0,0c-1.105,0-2,1.068-2,2.384v10.729C131.186,332.954,132.081,334.022,133.186,334.022z"/>
			</g>
			
				<rect x="60.594" y="239.043" transform="matrix(-1 -1.224647e-16 1.224647e-16 -1 147.688 484.2507)" style="fill:#E0E0E0;" width="26.5" height="6.166"/>
			
				<rect x="79.094" y="239.043" transform="matrix(-1 -1.224647e-16 1.224647e-16 -1 396.188 484.2507)" style="fill:#EBEBEB;" width="238" height="6.166"/>
		</g>
	</g>
	<g>
		<polygon style="fill:#FAFAFA;" points="109.227,202.943 86.734,202.943 104.835,100.29 127.328,100.29 		"/>
		<polygon style="fill:#FAFAFA;" points="122.32,202.943 116.256,202.943 134.357,100.29 140.42,100.29 		"/>
		<polygon style="fill:#FAFAFA;" points="188.127,204.721 181.896,204.721 200.498,99.227 206.729,99.227 		"/>
		<polygon style="fill:#FAFAFA;" points="175.711,204.721 163.964,204.721 182.565,99.227 194.312,99.227 		"/>
		<g>
			<path style="fill:#E6E6E6;" d="M144.256,204.736H70.765V98.696h73.491V204.736z M76.578,198.923h61.866v-94.414H76.578V198.923z"
				/>
		</g>
		<g>
			<path style="fill:#F5F5F5;" d="M220.654,207.642H67.859V95.789h152.796V207.642z M73.672,201.829h141.17V101.602H73.672V201.829z
				"/>
		</g>
	</g>
</g>
<g id="Background_Simple" style="display:none;">
	<g style="display:inline;">
		<path style="fill:#407BFF;" d="M210.553,80.594c121.671,0,215.652,52.989,215.652,114.584c0,65.652-66.288,56.697-89.785,81.767
			c-18.815,20.075-11.748,87.142-62.094,87.142c-48.094,0-77.642-81.977-113.28-103.257c-15.995-9.551-62.923-12.054-88.107-37.239
			C36.442,187.097,79.651,80.594,210.553,80.594z"/>
		<path style="opacity:0.9;fill:#FFFFFF;" d="M210.553,80.594c121.671,0,215.652,52.989,215.652,114.584
			c0,65.652-66.288,56.697-89.785,81.767c-18.815,20.075-11.748,87.142-62.094,87.142c-48.094,0-77.642-81.977-113.28-103.257
			c-15.995-9.551-62.923-12.054-88.107-37.239C36.442,187.097,79.651,80.594,210.553,80.594z"/>
	</g>
</g>
<g id="Shadow">
	<ellipse id="_x3C_Path_x3E__1_" style="fill:#F5F5F5;" cx="250" cy="413.156" rx="210.792" ry="16.086"/>
</g>
<g id="Character_1">
	<g>
		<g>
			<path style="fill:#407BFF;" d="M74.375,247.541H106.8v12.833H74.375c-3.544,0-6.416-2.873-6.416-6.417
				C67.959,250.414,70.831,247.541,74.375,247.541z"/>
			<path style="opacity:0.4;" d="M74.375,247.541H106.8v12.833H74.375c-3.544,0-6.416-2.873-6.416-6.417
				C67.959,250.414,70.831,247.541,74.375,247.541z"/>
			<path style="fill:#407BFF;" d="M99.678,260.374h25.677c3.544,0,6.416-2.873,6.416-6.417l0,0c0-3.544-2.873-6.416-6.416-6.416
				H99.678c-3.544,0-6.416,2.873-6.416,6.416l0,0C93.261,257.501,96.134,260.374,99.678,260.374z"/>
			<path style="opacity:0.3;" d="M99.678,260.374h25.677c3.544,0,6.416-2.873,6.416-6.417l0,0c0-3.544-2.873-6.416-6.416-6.416
				H99.678c-3.544,0-6.416,2.873-6.416,6.416l0,0C93.261,257.501,96.134,260.374,99.678,260.374z"/>
		</g>
		<g>
			<g>
				<path style="fill:#407BFF;" d="M69.743,260.374h98.181v19.975H69.743c-5.516,0-9.987-4.472-9.987-9.987
					S64.228,260.374,69.743,260.374z"/>
				<path style="opacity:0.5;" d="M69.743,260.374h98.181v19.975H69.743c-5.516,0-9.987-4.472-9.987-9.987
					S64.228,260.374,69.743,260.374z"/>
			</g>
			<g>
				<path style="fill:#407BFF;" d="M140.918,280.349h191.579c5.516,0,9.987-4.472,9.987-9.987l0,0c0-5.516-4.471-9.987-9.987-9.987
					H140.918c-5.516,0-9.988,4.471-9.988,9.987l0,0C130.931,275.878,135.402,280.349,140.918,280.349z"/>
				<path style="opacity:0.3;" d="M140.918,280.349h191.579c5.516,0,9.987-4.472,9.987-9.987l0,0c0-5.516-4.471-9.987-9.987-9.987
					H140.918c-5.516,0-9.988,4.471-9.988,9.987l0,0C130.931,275.878,135.402,280.349,140.918,280.349z"/>
			</g>
		</g>
		<g>
			<g>
				
					<rect x="74.152" y="290.336" transform="matrix(-1 -1.224647e-16 1.224647e-16 -1 157.8805 682.3691)" style="fill:#263238;" width="9.576" height="101.696"/>
				
					<rect x="74.152" y="290.336" transform="matrix(-1 -1.224647e-16 1.224647e-16 -1 157.8805 682.3691)" style="opacity:0.3;fill:#FFFFFF;" width="9.576" height="101.696"/>
				
					<ellipse transform="matrix(0.7071 -0.7071 0.7071 0.7071 -259.1991 172.76)" style="fill:#407BFF;" cx="78.94" cy="399.261" rx="9.652" ry="9.652"/>
			</g>
			<g>
				
					<rect x="247.8" y="290.336" transform="matrix(-1 -1.224647e-16 1.224647e-16 -1 505.1763 682.3691)" style="fill:#263238;" width="9.576" height="101.696"/>
				
					<rect x="247.8" y="290.336" transform="matrix(-1 -1.224647e-16 1.224647e-16 -1 505.1763 682.3691)" style="opacity:0.3;fill:#FFFFFF;" width="9.576" height="101.696"/>
				
					<ellipse transform="matrix(0.9732 -0.2298 0.2298 0.9732 -84.974 68.7132)" style="fill:#407BFF;" cx="252.588" cy="399.261" rx="9.652" ry="9.652"/>
			</g>
			<g>
				
					<rect x="130.164" y="280.349" transform="matrix(-1 -1.224647e-16 1.224647e-16 -1 472.6489 570.6856)" style="fill:#263238;" width="212.321" height="9.987"/>
				
					<rect x="130.164" y="280.349" transform="matrix(-1 -1.224647e-16 1.224647e-16 -1 472.6489 570.6856)" style="opacity:0.4;fill:#FFFFFF;" width="212.321" height="9.987"/>
			</g>
			<g>
				
					<rect x="59.756" y="280.349" transform="matrix(-1 -1.224647e-16 1.224647e-16 -1 193.6338 570.6856)" style="fill:#263238;" width="74.122" height="9.987"/>
				
					<rect x="59.756" y="280.349" transform="matrix(-1 -1.224647e-16 1.224647e-16 -1 193.6338 570.6856)" style="opacity:0.3;fill:#FFFFFF;" width="74.122" height="9.987"/>
			</g>
			<g>
				
					<rect x="150.634" y="367.004" transform="matrix(-1 -1.224647e-16 1.224647e-16 -1 473.9342 741.5878)" style="fill:#263238;" width="172.667" height="7.581"/>
				
					<rect x="150.634" y="367.004" transform="matrix(-1 -1.224647e-16 1.224647e-16 -1 473.9342 741.5878)" style="opacity:0.4;fill:#FFFFFF;" width="172.667" height="7.581"/>
			</g>
			<g>
				
					<rect x="78.94" y="367.004" transform="matrix(-1 -1.224647e-16 1.224647e-16 -1 229.5739 741.5878)" style="fill:#263238;" width="71.693" height="7.581"/>
				
					<rect x="78.94" y="367.004" transform="matrix(-1 -1.224647e-16 1.224647e-16 -1 229.5739 741.5878)" style="opacity:0.3;fill:#FFFFFF;" width="71.693" height="7.581"/>
			</g>
			<g>
				
					<rect x="318.513" y="290.336" transform="matrix(-1 -1.224647e-16 1.224647e-16 -1 646.601 682.3691)" style="fill:#263238;" width="9.576" height="101.696"/>
				
					<rect x="318.513" y="290.336" transform="matrix(-1 -1.224647e-16 1.224647e-16 -1 646.601 682.3691)" style="opacity:0.5;fill:#FFFFFF;" width="9.576" height="101.696"/>
				
					<ellipse transform="matrix(0.9871 -0.1602 0.1602 0.9871 -59.7797 56.9423)" style="fill:#407BFF;" cx="323.301" cy="399.261" rx="9.652" ry="9.652"/>
			</g>
			<g>
				
					<rect x="144.865" y="290.336" transform="matrix(-1 -1.224647e-16 1.224647e-16 -1 299.3051 682.3691)" style="fill:#263238;" width="9.576" height="101.696"/>
				
					<rect x="144.865" y="290.336" transform="matrix(-1 -1.224647e-16 1.224647e-16 -1 299.3051 682.3691)" style="opacity:0.5;fill:#FFFFFF;" width="9.576" height="101.696"/>
				
					<ellipse transform="matrix(0.9732 -0.2298 0.2298 0.9732 -87.7276 45.0635)" style="fill:#407BFF;" cx="149.653" cy="399.261" rx="9.652" ry="9.652"/>
			</g>
		</g>
	</g>
	<g>
		<path style="fill:#FF8B7B;" d="M309.171,330.149c1.689,0.236,1.338,4.307-2.639,4.613c-4.066,0.313-12.965,0.69-15.909,0.917
			c-4.786,0.368-6.716,1.473-8.77,0.686c-0.52-0.199-1.337-1.094-1.534-1.615c-0.631-1.668-0.892-5.261-0.6-7.384
			c0.105-0.764,0.2-1.573-0.07-2.296c-5.958-15.962-22.417-49.22-23.588-65.484l-10.588,0.392l0.952-17.68l5.827-3.864
			c0,0,7.466,1.549,9.664,1.934c2.63,0.461,7.332,2.728,9.468,8.35c4.098,10.784,13.029,57.323,19.042,73.186
			C292.32,326.894,301.599,329.089,309.171,330.149z"/>
		<path style="fill:#407BFF;" d="M254.231,238.409c-8.54,4.17-6.612,16.41-5.556,20.961c0.214,0.922-0.441,1.814-1.385,1.889
			c-8.588,0.69-44.642,2.983-51.686-6.454c-8.009-10.73-5.706-28.741-5.706-28.741l22.924,1.62c0,0-0.094,1.511,14.224,3.277
			c10.872,1.341,22.24,4.447,27.082,5.865C254.884,237.048,254.938,238.064,254.231,238.409z"/>
		<path style="opacity:0.5;fill:#FFFFFF;" d="M254.231,238.409c-8.54,4.17-6.612,16.41-5.556,20.961
			c0.214,0.922-0.441,1.814-1.385,1.889c-8.588,0.69-44.642,2.983-51.686-6.454c-8.009-10.73-5.706-28.741-5.706-28.741l22.924,1.62
			c0,0-0.094,1.511,14.224,3.277c10.872,1.341,22.24,4.447,27.082,5.865C254.884,237.048,254.938,238.064,254.231,238.409z"/>
		<path style="opacity:0.2;" d="M244.521,261.463c-3.102-3.369-0.556-21.086-12.554-22.073c-13.048-1.074-36.886-6.793-36.886-6.793
			l-3.378,2.789l-1.824,2.509c0.552,5.543,2.054,11.991,5.726,16.91C202.049,263.439,232.76,262.255,244.521,261.463z"/>
		<g>
			<g>
				<g>
					<path style="fill:#263238;" d="M256.87,268.712l-0.003-0.003c-0.546-0.662-0.394-1.657,0.334-2.111
						c2.382-1.486,7.992-4.298,17.017-4.878c0.809-0.052,1.507,0.564,1.535,1.374l0,0.003c0.027,0.765-0.556,1.423-1.321,1.472
						c-8.473,0.539-13.655,3.17-15.712,4.449C258.113,269.395,257.325,269.264,256.87,268.712z"/>
				</g>
				<g>
					<path style="fill:#263238;" d="M259.706,277.733l-0.007-0.008c-0.552-0.677-0.372-1.678,0.376-2.129
						c2.342-1.412,7.743-3.993,16.62-4.546c0.808-0.05,1.504,0.565,1.532,1.374l0,0.004c0.027,0.767-0.559,1.424-1.324,1.471
						c-8.329,0.519-13.343,2.949-15.357,4.154C260.936,278.418,260.156,278.285,259.706,277.733z"/>
				</g>
				<g>
					<path style="fill:#263238;" d="M246.008,262.301c-0.758,0.306-1.614-0.092-1.887-0.862c-3.116-8.791-1.56-15.646,0.367-19.928
						c1.403-3.118,3.175-5.321,4.314-6.541c0.585-0.627,1.584-0.592,2.133,0.066l-0.072-0.086l0.064,0.077
						c0.469,0.558,0.438,1.374-0.062,1.904c-2.456,2.6-8.615,10.769-4.04,23.591C247.081,261.233,246.71,262.018,246.008,262.301
						L246.008,262.301z"/>
				</g>
				<g>
					<path style="fill:#263238;" d="M235.955,262.389c-5.024-14.281,1.999-25.503,4.709-29.1c0.507-0.673,1.488-0.751,2.105-0.177
						l-0.072-0.067l0.057,0.053c0.542,0.502,0.615,1.33,0.162,1.914c-2.424,3.128-8.944,13.23-4.254,26.466
						c0.252,0.71-0.121,1.492-0.82,1.774l0,0C237.084,263.557,236.227,263.161,235.955,262.389z"/>
				</g>
				<g>
					<path style="fill:#263238;" d="M266.372,275.012l-5.935-22.781c-0.159-0.61-0.663-1.077-1.285-1.191l-22.955-4.174l0.511-2.81
						l22.955,4.174c1.71,0.311,3.099,1.599,3.537,3.281l5.935,22.781L266.372,275.012z"/>
				</g>
			</g>
			<path style="fill:#263238;" d="M264.302,250.302c0,1.928-1.563,3.491-3.491,3.491c-1.928,0-3.491-1.563-3.491-3.491
				c0-1.928,1.563-3.491,3.491-3.491C262.739,246.811,264.302,248.374,264.302,250.302z"/>
			<circle style="fill:#407BFF;" cx="260.811" cy="250.302" r="1.944"/>
		</g>
		<g>
			<path style="fill:#FF8B7B;" d="M237.661,330.87c0.764,4.835,8.651,7.542,15.903,9.965c1.617,0.541,0.53,4.479-3.436,4.055
				c-4.054-0.434-12.873-1.686-15.809-2.001c-4.773-0.511-6.872,0.223-8.748-0.925c-0.475-0.291-1.115-1.32-1.213-1.867
				c-0.316-1.755,1.019-5.162,1.693-7.196c0.243-0.732,0.406-1.5,0.35-2.27c-1.236-17.068-6.863-53.66-6.026-69.137l-7.732-0.56
				v-16.728l6.78-4.816c0,0,6.536,1.671,8.712,1.934c2.651,0.321,6.38,0.824,8.516,6.446
				C240.75,258.553,234.621,311.634,237.661,330.87z"/>
			<path style="fill:#407BFF;" d="M168.778,226.064c0,0-2.304,18.011,5.706,28.741c6.963,9.329,33.436,9.108,40.233,8.891
				c0.864-0.028,1.536-0.748,1.497-1.612c-0.213-4.764-0.073-19.036,8.991-21.386c0.419-0.109,0.405-0.703-0.022-0.772
				c-7.663-1.245-27.975-5.145-33.48-12.242L168.778,226.064z"/>
			<path style="opacity:0.5;fill:#FFFFFF;" d="M168.778,226.064c0,0-2.304,18.011,5.706,28.741
				c6.963,9.329,33.436,9.108,40.233,8.891c0.864-0.028,1.536-0.748,1.497-1.612c-0.213-4.764-0.073-19.036,8.991-21.386
				c0.419-0.109,0.405-0.703-0.022-0.772c-7.663-1.245-27.975-5.145-33.48-12.242L168.778,226.064z"/>
		</g>
		<path style="fill:#FF8B7B;" d="M222.713,171.159c0.374,5.055,0.812,10.257,1.355,15.312c0.28,2.532,0.596,5.05,0.986,7.493
			c0.195,1.221,0.425,2.423,0.674,3.572c0.247,1.144,0.537,2.258,0.856,3.165c0.161,0.466,0.428,1.058,0.635,1.583l0.753,1.688
			c0.527,1.143,1.065,2.292,1.636,3.446c1.144,2.3,2.278,4.639,3.473,6.956c2.354,4.65,4.716,9.35,7.003,14.073l0.008,0.017
			c0.628,1.297,0.086,2.857-1.211,3.484c-1.12,0.542-2.438,0.21-3.18-0.726c-3.311-4.172-6.437-8.435-9.426-12.835
			c-1.481-2.205-2.963-4.424-4.365-6.721c-0.707-1.142-1.4-2.314-2.09-3.5c-0.686-1.212-1.335-2.419-1.995-3.845
			c-1.309-3.024-1.981-5.719-2.595-8.453c-0.61-2.716-1.068-5.399-1.457-8.078c-0.778-5.371-1.271-10.644-1.519-16.079
			c-0.132-2.889,2.104-5.338,4.993-5.469c2.837-0.129,5.25,2.024,5.46,4.837L222.713,171.159z"/>
		<g>
			<path style="fill:#407BFF;" d="M215.011,153.83c7.361,5.35,10.164,21.207,10.164,21.207l-16.412,7.569
				c0,0-3.146-3.99-4.647-12.469C203.662,167.569,207.533,148.395,215.011,153.83z"/>
		</g>
		<g style="opacity:0.5;">
			<path d="M215.011,153.83c7.361,5.35,10.164,21.207,10.164,21.207l-16.412,7.569c0,0-3.146-3.99-4.647-12.469
				C203.662,167.569,207.533,148.395,215.011,153.83z"/>
		</g>
		<path style="fill:#407BFF;" d="M210.515,151.817c-8.378-1.779-17.257-2.1-26.492-1.379c-4.923,0.384-9.04,3.862-10.167,8.67
			c-2.613,11.147-7.088,33.151-5.544,68.244c4.035,1.689,21.957,2.672,31.726,2.824c1.062,0.016,3.864-2.233,3.864-2.233
			s2.147,2.225,3.504,2.181c6.5-0.209,6.023-0.871,7.315-2.034c3.184-6.072,6.229-21.909,0.499-36.824
			c0.673-8.571,3.198-18.058,4.142-27.235C219.953,158.291,216.159,153.016,210.515,151.817z"/>
		<path style="fill:#FF8B7B;" d="M195.971,136.116c-0.788,5.874-1.983,12.684-6.133,16.016c1.551,4.059,5.432,7.695,11.149,7.993
			c6.284,0.328,5.315-4.691,4.275-7.347c-2.669-2.995-1.386-6.329-0.713-8.699L195.971,136.116z"/>
		<path style="opacity:0.2;" d="M197.71,138.986c0.039-0.374,0.098-0.747,0.158-1.112l6.679,6.207
			c-0.403,1.416-1.023,3.187-0.885,5.017C200.346,146.876,197.307,142.547,197.71,138.986z"/>
		<path style="fill:#FF8B7B;" d="M193.772,127.581c0.989,7.764,1.173,12.362,5.377,16.073c6.323,5.581,15.724,1.292,17.077-6.632
			c1.218-7.133-0.604-18.631-8.447-21.167C200.053,113.357,192.783,119.817,193.772,127.581z"/>
		<path style="fill:#263238;" d="M206.207,129.143c0.042,0.635,0.412,1.125,0.827,1.094c0.415-0.031,0.719-0.571,0.677-1.206
			c-0.042-0.635-0.412-1.125-0.827-1.094C206.468,127.967,206.165,128.507,206.207,129.143z"/>
		<path style="fill:#263238;" d="M214.146,128.798c0.042,0.635,0.412,1.125,0.827,1.094c0.415-0.031,0.719-0.571,0.677-1.206
			s-0.412-1.125-0.827-1.094C214.408,127.623,214.105,128.163,214.146,128.798z"/>
		<path style="fill:#FF5652;" d="M211.841,129.606c0,0,1.899,3.447,3.704,4.988c-0.984,1.195-2.945,0.977-2.945,0.977
			L211.841,129.606z"/>
		<path style="fill:#263238;" d="M204.768,124.916c-0.062-0.004-0.124-0.023-0.18-0.059c-0.172-0.112-0.22-0.344-0.107-0.517
			c1.138-1.738,2.865-1.765,2.938-1.765c0.207-0.001,0.373,0.166,0.372,0.372c-0.001,0.206-0.168,0.374-0.374,0.376l0,0
			c-0.057,0.001-1.403,0.036-2.311,1.423C205.029,124.863,204.898,124.924,204.768,124.916z"/>
		<path style="fill:#263238;" d="M216.559,125.564c-0.119,0.023-0.246-0.013-0.336-0.106c-1.142-1.183-2.468-0.95-2.524-0.94
			c-0.202,0.038-0.397-0.095-0.434-0.297c-0.037-0.202,0.095-0.398,0.297-0.438c0.074-0.013,1.77-0.331,3.2,1.152
			c0.143,0.148,0.138,0.385-0.011,0.529C216.696,125.517,216.629,125.551,216.559,125.564z"/>
		<path style="fill:#FF8B7B;" d="M174.33,157.76c-0.591,0.763-1.069,1.409-1.585,2.112c-0.502,0.692-0.982,1.394-1.464,2.094
			c-0.958,1.404-1.889,2.822-2.797,4.26c-1.796,2.885-3.485,5.854-5.014,8.943c-1.54,3.085-2.919,6.293-4.052,9.685
			c-0.57,1.695-1.061,3.449-1.444,5.268c-0.199,0.904-0.351,1.842-0.491,2.782l-0.165,1.439c-0.013,0.082-0.03,0.354-0.04,0.531
			c-0.01,0.197-0.024,0.401-0.022,0.592c0.01,0.375,0.011,0.773,0.056,1.123c0.331,2.907,1.416,4.913,2.48,6.644
			c1.093,1.719,2.28,3.175,3.502,4.518c2.455,2.671,5.064,4.921,7.732,7.034c5.36,4.203,10.945,7.742,16.871,10.938
			c1.376,0.742,3.092,0.229,3.835-1.147c0.655-1.214,0.332-2.693-0.698-3.534l-0.079-0.064c-2.44-1.995-4.958-4.047-7.336-6.162
			c-2.406-2.096-4.757-4.233-6.983-6.428c-2.222-2.188-4.341-4.452-6.104-6.752c-0.884-1.141-1.658-2.303-2.223-3.39
			c-0.568-1.069-0.856-2.117-0.812-2.473c-0.008-0.055,0.018-0.065,0.013-0.097c0.001-0.013,0.012-0.012,0.014-0.018
			c0.008-0.025-0.008,0.042,0.016-0.077l0.183-0.98c0.15-0.663,0.301-1.326,0.501-2.002c0.392-1.346,0.851-2.712,1.388-4.082
			c1.081-2.738,2.417-5.469,3.868-8.172c1.472-2.695,3.052-5.371,4.728-7.999c0.829-1.319,1.683-2.627,2.56-3.916l1.327-1.917
			c0.429-0.623,0.904-1.299,1.295-1.836l0.051-0.07c1.854-2.543,1.295-6.107-1.248-7.961
			C179.695,154.827,176.211,155.338,174.33,157.76z"/>
		<g>
			<path style="fill:#407BFF;" d="M181.219,151.015c-8.913,1.834-16.322,17.198-16.322,17.198l10.083,15.085
				c0,0,6.612-4.975,10.615-12.598C186.807,168.391,190.273,149.153,181.219,151.015z"/>
		</g>
		<g style="opacity:0.5;">
			<path d="M181.219,151.015c-8.913,1.834-16.322,17.198-16.322,17.198l10.083,15.085c0,0,6.612-4.975,10.615-12.598
				C186.807,168.391,190.273,149.153,181.219,151.015z"/>
		</g>
		<g>
			<path style="fill:#FF8B7B;" d="M189.115,220.156l7.685,2.185l-5.098,8.113c0,0-6.718-2.823-5.795-6.635L189.115,220.156z"/>
			<path style="fill:#FF8B7B;" d="M200.897,229.559l-2.266,2.542c-0.902,1.012-2.404,1.222-3.549,0.496l-3.379-2.142l5.098-8.113
				l3.828,3.27C201.808,226.619,201.929,228.4,200.897,229.559z"/>
		</g>
		<g>
			<path style="fill:#407BFF;" d="M192.043,149.223c-0.188,1.803,1.967,8.187,9.509,10.917c-2.91,0.026-4.181,3.714-4.181,3.714
				s-10-5.328-8.812-11.763C189.338,149.099,192.043,149.223,192.043,149.223z"/>
			<path style="fill:#407BFF;" d="M203.888,149.715c-0.184,1.762,1.858,5.465-2.336,10.426c2.91,0.026,4.655,2.922,4.655,2.922
				s3.87-5.519,0.825-11.897C205.473,149.811,203.888,149.715,203.888,149.715z"/>
		</g>
		<g style="opacity:0.5;">
			<path d="M192.043,149.223c-0.188,1.803,1.967,8.187,9.509,10.917c-2.91,0.026-4.181,3.714-4.181,3.714s-10-5.328-8.812-11.763
				C189.338,149.099,192.043,149.223,192.043,149.223z"/>
			<path d="M203.888,149.715c-0.184,1.762,1.858,5.465-2.336,10.426c2.91,0.026,4.655,2.922,4.655,2.922s3.87-5.519,0.825-11.897
				C205.473,149.811,203.888,149.715,203.888,149.715z"/>
		</g>
		<path style="fill:#263238;" d="M208.038,138.954c-0.243,0.139-0.474,0.299-0.689,0.478c-0.073,0.054-0.088,0.157-0.034,0.23
			c0.001,0.002,0.002,0.003,0.004,0.005c0.063,0.068,0.167,0.075,0.239,0.017c1.096-0.922,2.565-1.269,3.958-0.935
			c0.088,0.029,0.182-0.02,0.21-0.107c0.028-0.088-0.02-0.182-0.107-0.21C210.403,138.114,209.111,138.303,208.038,138.954z"/>
		<g>
			<path style="fill:#FF8B7B;" d="M237.384,225.829l8.023-0.557l-2.055,9.424c0,0-7.326-0.377-7.754-4.302L237.384,225.829z"/>
			<path style="fill:#FF8B7B;" d="M251.751,230.706l-1.277,3.181c-0.508,1.266-1.859,1.979-3.191,1.682l-3.931-0.874l2.055-9.424
				l4.742,1.788C251.61,227.612,252.333,229.257,251.751,230.706z"/>
		</g>
		<path style="fill:#263238;" d="M194.399,133.231c0,0,4.834,0.195,3.307-4.743c0,0,5.161-1.051,2.147-6.517
			c0,0,4.736,2.081,5.928-3.326c0,0,3.89,3.521,6.381,0.88c0,0,4.006,3.089,5.387,0.503c0.694-1.3,2.584-5.43-2.648-5.733
			c0,0-2.392-5.424-7.333-2.692c0,0-3.357-3.646-7.363-0.252c0,0-5.587-1.383-6.668,3.647c0,0-4.348,0.503-3.009,5.407
			c0,0-2.57,0.911-0.719,4.731c0,0-2.509,2.051,1.041,5.073C190.849,130.209,189.427,133.483,194.399,133.231z"/>
		<path style="fill:#FF8B7B;" d="M191.637,135.681c1.111,1.786,2.949,2.886,4.646,3.243c2.553,0.536,3.682-1.79,2.849-4.111
			c-0.749-2.09-2.981-4.887-5.484-4.38C191.184,130.932,190.367,133.638,191.637,135.681z"/>
	</g>
</g>
<g id="Wheelchair">
	<g>
		<g>
			<g>
				<path style="fill:#407BFF;" d="M177.808,369.773c-1.383-0.338-2.825-0.525-4.311-0.554c-2.276-0.044-4.557,0-6.833,0
					c-9.591,0-19.182,0-28.773,0c-4.052,0-8.104,0-12.157,0c-2.008,0-4.529,0.336-6.47-0.327c-5.289-1.807-4.617-10.897-5.083-15.35
					c-1.947-18.593-3.893-37.185-5.84-55.778c-0.472-4.506-0.639-9.171-1.468-13.632c-1.194-6.429-6.831-10.823-13.248-11.009
					c-3.77-0.109-7.56,0-11.331,0c-1.322,0-2.644,0-3.966,0c-1.999,0-2.003,3.107,0,3.107c3.688,0,7.377,0,11.065,0
					c5.324,0,10.678,0.199,13.486,5.688c0.989,1.934,1.111,3.966,1.331,6.065c0.303,2.898,0.607,5.796,0.91,8.693
					c1.918,18.312,3.835,36.625,5.752,54.937c0.446,4.255,0.698,8.584,1.354,12.813c1.375,8.866,10.212,7.899,16.867,7.899
					c9.49,0,18.98,0,28.47,0c3.925,0,7.851,0,11.776,0c2.308,0,4.766-0.175,7.043,0.252c0.487,0.091,0.961,0.213,1.425,0.358
					V369.773z"/>
				<path style="opacity:0.6;fill:#FFFFFF;" d="M177.808,369.773c-1.383-0.338-2.825-0.525-4.311-0.554
					c-2.276-0.044-4.557,0-6.833,0c-9.591,0-19.182,0-28.773,0c-4.052,0-8.104,0-12.157,0c-2.008,0-4.529,0.336-6.47-0.327
					c-5.289-1.807-4.617-10.897-5.083-15.35c-1.947-18.593-3.893-37.185-5.84-55.778c-0.472-4.506-0.639-9.171-1.468-13.632
					c-1.194-6.429-6.831-10.823-13.248-11.009c-3.77-0.109-7.56,0-11.331,0c-1.322,0-2.644,0-3.966,0c-1.999,0-2.003,3.107,0,3.107
					c3.688,0,7.377,0,11.065,0c5.324,0,10.678,0.199,13.486,5.688c0.989,1.934,1.111,3.966,1.331,6.065
					c0.303,2.898,0.607,5.796,0.91,8.693c1.918,18.312,3.835,36.625,5.752,54.937c0.446,4.255,0.698,8.584,1.354,12.813
					c1.375,8.866,10.212,7.899,16.867,7.899c9.49,0,18.98,0,28.47,0c3.925,0,7.851,0,11.776,0c2.308,0,4.766-0.175,7.043,0.252
					c0.487,0.091,0.961,0.213,1.425,0.358V369.773z"/>
			</g>
			<g>
				<path style="fill:#407BFF;" d="M76.472,276.897c5.099,0,10.198,0,15.297,0c2.856,0,2.861-4.439,0-4.439
					c-5.099,0-10.198,0-15.297,0C73.616,272.457,73.611,276.897,76.472,276.897L76.472,276.897z"/>
			</g>
			<g style="opacity:0.4;">
				<path style="fill:#FFFFFF;" d="M76.472,276.897c5.099,0,10.198,0,15.297,0c2.856,0,2.861-4.439,0-4.439
					c-5.099,0-10.198,0-15.297,0C73.616,272.457,73.611,276.897,76.472,276.897L76.472,276.897z"/>
			</g>
			<g>
				<g>
					<g>
						<path style="fill:#263238;" d="M171.153,414.971c-6.275,0-11.38-5.678-11.38-12.656c0-6.979,5.105-12.657,11.38-12.657
							c6.275,0,11.38,5.678,11.38,12.657C182.533,409.293,177.428,414.971,171.153,414.971z M171.153,394.984
							c-3.338,0-6.053,3.288-6.053,7.33c0,4.041,2.715,7.329,6.053,7.329s6.053-3.288,6.053-7.329
							C177.206,398.272,174.49,394.984,171.153,394.984z"/>
					</g>
				</g>
				<g>
					<g>
						<path style="fill:#407BFF;" d="M108.84,316.478c19.122,0,38.247-0.108,57.368,0c6.086,0.034,10.741,4.064,10.918,10.315
							c0.084,2.949,0,5.912,0,8.862c0,12.457,0,24.914,0,37.371c0,5.904,0,11.807,0,17.711c0,4.858,0.391,11.071-6.397,11.414
							c-1.99,0.1-2.002,3.208,0,3.107c6.234-0.315,9.505-5.096,9.505-10.927c0-4.295,0-8.59,0-12.885c0-13.608,0-27.217,0-40.825
							c0-8.932,2.244-21.68-7.874-26.124c-3.464-1.521-7.444-1.126-11.141-1.126c-6.094,0-12.188,0-18.283,0
							c-11.365,0-22.731,0-34.096,0C106.841,313.37,106.838,316.478,108.84,316.478L108.84,316.478z"/>
					</g>
					<g style="opacity:0.6;">
						<path style="fill:#FFFFFF;" d="M108.84,316.478c19.122,0,38.247-0.108,57.368,0c6.086,0.034,10.741,4.064,10.918,10.315
							c0.084,2.949,0,5.912,0,8.862c0,12.457,0,24.914,0,37.371c0,5.904,0,11.807,0,17.711c0,4.858,0.391,11.071-6.397,11.414
							c-1.99,0.1-2.002,3.208,0,3.107c6.234-0.315,9.505-5.096,9.505-10.927c0-4.295,0-8.59,0-12.885c0-13.608,0-27.217,0-40.825
							c0-8.932,2.244-21.68-7.874-26.124c-3.464-1.521-7.444-1.126-11.141-1.126c-6.094,0-12.188,0-18.283,0
							c-11.365,0-22.731,0-34.096,0C106.841,313.37,106.838,316.478,108.84,316.478L108.84,316.478z"/>
					</g>
				</g>
				<g>
					<path style="fill:#407BFF;" d="M158.711,317.478h-36.038c-2.045,0-3.703-1.658-3.703-3.703v-0.289
						c0-2.045,1.658-3.703,3.703-3.703h36.038c2.045,0,3.703,1.658,3.703,3.703v0.289
						C162.414,315.82,160.756,317.478,158.711,317.478z"/>
					<path style="opacity:0.4;" d="M158.711,317.478h-36.038c-2.045,0-3.703-1.658-3.703-3.703v-0.289
						c0-2.045,1.658-3.703,3.703-3.703h36.038c2.045,0,3.703,1.658,3.703,3.703v0.289
						C162.414,315.82,160.756,317.478,158.711,317.478z"/>
				</g>
			</g>
			<g>
				<g>
					<path style="fill:#263238;" d="M114.556,414.971c-21.444,0-38.891-19.827-38.891-44.197c0-24.371,17.446-44.198,38.891-44.198
						c21.445,0,38.891,19.827,38.891,44.198C153.447,395.144,136,414.971,114.556,414.971z M114.556,331.902
						c-18.507,0-33.564,17.438-33.564,38.871c0,21.433,15.057,38.871,33.564,38.871c18.507,0,33.564-17.438,33.564-38.871
						C148.12,349.34,133.063,331.902,114.556,331.902z"/>
				</g>
				<g>
					<g>
						<path style="fill:#407BFF;" d="M114.556,407.282c-17.642,0-31.995-16.378-31.995-36.509c0-20.132,14.353-36.51,31.995-36.51
							s31.996,16.378,31.996,36.51C146.551,390.904,132.198,407.282,114.556,407.282z M114.556,336.631
							c-16.337,0-29.628,15.316-29.628,34.142c0,18.826,13.291,34.142,29.628,34.142s29.628-15.316,29.628-34.142
							C144.184,351.947,130.893,336.631,114.556,336.631z"/>
					</g>
					<g style="opacity:0.7;">
						<path style="fill:#FFFFFF;" d="M114.556,407.282c-17.642,0-31.995-16.378-31.995-36.509c0-20.132,14.353-36.51,31.995-36.51
							s31.996,16.378,31.996,36.51C146.551,390.904,132.198,407.282,114.556,407.282z M114.556,336.631
							c-16.337,0-29.628,15.316-29.628,34.142c0,18.826,13.291,34.142,29.628,34.142s29.628-15.316,29.628-34.142
							C144.184,351.947,130.893,336.631,114.556,336.631z"/>
					</g>
				</g>
			</g>
		</g>
		<g>
			<path style="fill:#407BFF;" d="M177.288,350.732H74.014c-2.045,0-3.703-1.658-3.703-3.703v-0.289
				c0-2.045,1.658-3.703,3.703-3.703h103.273c2.045,0,3.703,1.658,3.703,3.703v0.289
				C180.99,349.074,179.333,350.732,177.288,350.732z"/>
			<path style="opacity:0.4;" d="M177.288,350.732H74.014c-2.045,0-3.703-1.658-3.703-3.703v-0.289c0-2.045,1.658-3.703,3.703-3.703
				h103.273c2.045,0,3.703,1.658,3.703,3.703v0.289C180.99,349.074,179.333,350.732,177.288,350.732z"/>
		</g>
		<g>
			<g>
				<path style="fill:#407BFF;" d="M197.883,409.745l-25.61,3.092c-1.192,0.144-2.275-0.706-2.42-1.898l-0.02-0.168
					c-0.144-1.192,0.705-2.275,1.897-2.419l25.612-3.092c1.192-0.144,2.275,0.706,2.419,1.898l0.02,0.168
					C199.925,408.518,199.075,409.601,197.883,409.745z"/>
			</g>
			<g style="opacity:0.4;">
				<path d="M197.883,409.745l-25.61,3.092c-1.192,0.144-2.275-0.706-2.42-1.898l-0.02-0.168c-0.144-1.192,0.705-2.275,1.897-2.419
					l25.612-3.092c1.192-0.144,2.275,0.706,2.419,1.898l0.02,0.168C199.925,408.518,199.075,409.601,197.883,409.745z"/>
			</g>
		</g>
		<g>
			<g>
				<g>
					<path style="fill:#407BFF;" d="M39.615,276.231c3.688,0,7.376,0,11.065,0c5.324,0,10.678,0.199,13.486,5.688
						c0.99,1.934,1.111,3.966,1.331,6.065c0.303,2.898,0.607,5.796,0.91,8.693c1.917,18.312,3.835,36.625,5.752,54.937
						c0.445,4.255,0.698,8.584,1.354,12.813c1.375,8.866,10.212,7.899,16.867,7.899c9.49,0,18.98,0,28.47,0
						c3.925,0,7.851,0,11.776,0c2.308,0,4.766-0.175,7.043,0.252c8.092,1.518,12.828,10.634,17.373,16.712
						c5.108,6.833,10.217,13.665,15.325,20.498c0.348,0.465,0.696,0.931,1.044,1.396c1.183,1.583,3.882,0.036,2.683-1.568
						c-8.244-11.026-16.363-22.157-24.736-33.085c-3.567-4.655-8.728-7.2-14.575-7.312c-2.276-0.044-4.557,0-6.833,0
						c-9.591,0-19.182,0-28.773,0c-4.052,0-8.105,0-12.157,0c-2.008,0-4.529,0.336-6.469-0.327
						c-5.289-1.807-4.617-10.897-5.084-15.35c-1.947-18.593-3.893-37.185-5.84-55.778c-0.472-4.506-0.64-9.171-1.468-13.632
						c-1.194-6.429-6.831-10.823-13.248-11.009c-3.77-0.109-7.559,0-11.331,0c-1.322,0-2.644,0-3.966,0
						C37.616,273.123,37.612,276.231,39.615,276.231L39.615,276.231z"/>
				</g>
				<g style="opacity:0.6;">
					<path style="fill:#FFFFFF;" d="M39.615,276.231c3.688,0,7.376,0,11.065,0c5.324,0,10.678,0.199,13.486,5.688
						c0.99,1.934,1.111,3.966,1.331,6.065c0.303,2.898,0.607,5.796,0.91,8.693c1.917,18.312,3.835,36.625,5.752,54.937
						c0.445,4.255,0.698,8.584,1.354,12.813c1.375,8.866,10.212,7.899,16.867,7.899c9.49,0,18.98,0,28.47,0
						c3.925,0,7.851,0,11.776,0c2.308,0,4.766-0.175,7.043,0.252c8.092,1.518,12.828,10.634,17.373,16.712
						c5.108,6.833,10.217,13.665,15.325,20.498c0.348,0.465,0.696,0.931,1.044,1.396c1.183,1.583,3.882,0.036,2.683-1.568
						c-8.244-11.026-16.363-22.157-24.736-33.085c-3.567-4.655-8.728-7.2-14.575-7.312c-2.276-0.044-4.557,0-6.833,0
						c-9.591,0-19.182,0-28.773,0c-4.052,0-8.105,0-12.157,0c-2.008,0-4.529,0.336-6.469-0.327
						c-5.289-1.807-4.617-10.897-5.084-15.35c-1.947-18.593-3.893-37.185-5.84-55.778c-0.472-4.506-0.64-9.171-1.468-13.632
						c-1.194-6.429-6.831-10.823-13.248-11.009c-3.77-0.109-7.559,0-11.331,0c-1.322,0-2.644,0-3.966,0
						C37.616,273.123,37.612,276.231,39.615,276.231L39.615,276.231z"/>
				</g>
			</g>
			<g>
				<path style="fill:#407BFF;" d="M37.759,276.897c5.099,0,10.198,0,15.297,0c2.856,0,2.861-4.439,0-4.439
					c-5.099,0-10.198,0-15.297,0C34.903,272.457,34.898,276.897,37.759,276.897L37.759,276.897z"/>
			</g>
			<g style="opacity:0.4;">
				<path style="fill:#FFFFFF;" d="M37.759,276.897c5.099,0,10.198,0,15.297,0c2.856,0,2.861-4.439,0-4.439
					c-5.099,0-10.198,0-15.297,0C34.903,272.457,34.898,276.897,37.759,276.897L37.759,276.897z"/>
			</g>
			<g>
				<g>
					<g>
						<path style="fill:#263238;" d="M132.439,414.971c-6.275,0-11.38-5.678-11.38-12.656c0-6.979,5.105-12.657,11.38-12.657
							c6.275,0,11.38,5.678,11.38,12.657C143.819,409.293,138.714,414.971,132.439,414.971z M132.439,394.984
							c-3.338,0-6.053,3.288-6.053,7.33c0,4.041,2.715,7.329,6.053,7.329s6.053-3.288,6.053-7.329
							C138.492,398.272,135.777,394.984,132.439,394.984z"/>
					</g>
				</g>
				<g>
					<g>
						<path style="fill:#407BFF;" d="M70.127,316.478c19.122,0,38.247-0.108,57.368,0c6.086,0.034,10.741,4.064,10.918,10.315
							c0.084,2.949,0,5.912,0,8.862c0,12.457,0,24.914,0,37.371c0,5.904,0,11.807,0,17.711c0,4.858,0.391,11.071-6.397,11.414
							c-1.99,0.1-2.002,3.208,0,3.107c6.234-0.315,9.505-5.096,9.505-10.927c0-4.295,0-8.59,0-12.885c0-13.608,0-27.217,0-40.825
							c0-8.932,2.244-21.68-7.874-26.124c-3.464-1.521-7.444-1.126-11.141-1.126c-6.094,0-12.188,0-18.283,0
							c-11.365,0-22.731,0-34.096,0C68.128,313.37,68.125,316.478,70.127,316.478L70.127,316.478z"/>
					</g>
					<g style="opacity:0.6;">
						<path style="fill:#FFFFFF;" d="M70.127,316.478c19.122,0,38.247-0.108,57.368,0c6.086,0.034,10.741,4.064,10.918,10.315
							c0.084,2.949,0,5.912,0,8.862c0,12.457,0,24.914,0,37.371c0,5.904,0,11.807,0,17.711c0,4.858,0.391,11.071-6.397,11.414
							c-1.99,0.1-2.002,3.208,0,3.107c6.234-0.315,9.505-5.096,9.505-10.927c0-4.295,0-8.59,0-12.885c0-13.608,0-27.217,0-40.825
							c0-8.932,2.244-21.68-7.874-26.124c-3.464-1.521-7.444-1.126-11.141-1.126c-6.094,0-12.188,0-18.283,0
							c-11.365,0-22.731,0-34.096,0C68.128,313.37,68.125,316.478,70.127,316.478L70.127,316.478z"/>
					</g>
				</g>
				<g>
					<path style="fill:#407BFF;" d="M119.998,317.478H83.96c-2.045,0-3.703-1.658-3.703-3.703v-0.289
						c0-2.045,1.658-3.703,3.703-3.703h36.038c2.045,0,3.703,1.658,3.703,3.703v0.289
						C123.701,315.82,122.043,317.478,119.998,317.478z"/>
					<path style="opacity:0.4;" d="M119.998,317.478H83.96c-2.045,0-3.703-1.658-3.703-3.703v-0.289
						c0-2.045,1.658-3.703,3.703-3.703h36.038c2.045,0,3.703,1.658,3.703,3.703v0.289
						C123.701,315.82,122.043,317.478,119.998,317.478z"/>
				</g>
			</g>
			<g>
				<g>
					<path style="fill:#263238;" d="M75.843,414.971c-21.444,0-38.891-19.827-38.891-44.197c0-24.371,17.446-44.198,38.891-44.198
						c21.445,0,38.891,19.827,38.891,44.198C114.733,395.144,97.287,414.971,75.843,414.971z M75.843,331.902
						c-18.507,0-33.564,17.438-33.564,38.871c0,21.433,15.057,38.871,33.564,38.871c18.507,0,33.564-17.438,33.564-38.871
						C109.407,349.34,94.35,331.902,75.843,331.902z"/>
				</g>
				<g>
					<g>
						<path style="fill:#407BFF;" d="M75.843,407.282c-17.642,0-31.995-16.378-31.995-36.509c0-20.132,14.353-36.51,31.995-36.51
							s31.996,16.378,31.996,36.51C107.838,390.904,93.485,407.282,75.843,407.282z M75.843,336.631
							c-16.337,0-29.628,15.316-29.628,34.142c0,18.826,13.291,34.142,29.628,34.142s29.628-15.316,29.628-34.142
							C105.471,351.947,92.18,336.631,75.843,336.631z"/>
					</g>
					<g style="opacity:0.7;">
						<path style="fill:#FFFFFF;" d="M75.843,407.282c-17.642,0-31.995-16.378-31.995-36.509c0-20.132,14.353-36.51,31.995-36.51
							s31.996,16.378,31.996,36.51C107.838,390.904,93.485,407.282,75.843,407.282z M75.843,336.631
							c-16.337,0-29.628,15.316-29.628,34.142c0,18.826,13.291,34.142,29.628,34.142s29.628-15.316,29.628-34.142
							C105.471,351.947,92.18,336.631,75.843,336.631z"/>
					</g>
				</g>
			</g>
		</g>
	</g>
</g>
<g id="Character_2">
	<g>
		<path style="fill:#A24E3F;" d="M343.941,175.067l-2.564,5.442c0,0,1.826,1.02,4.056-0.116L343.941,175.067z"/>
		<path style="fill:#1A2E35;" d="M341.822,173.822c0.076,0.65,0.474,1.141,0.9,1.092c0.426-0.048,0.736-0.646,0.645-1.276
			c-0.091-0.63-0.474-1.141-0.901-1.086C342.04,172.609,341.753,173.173,341.822,173.822z"/>
		<path style="fill:#1A2E35;" d="M344.674,171.27c-0.112,0.027-0.23-0.003-0.317-0.079c-0.621-0.605-1.496-0.874-2.35-0.723
			c-0.182,0.046-0.367-0.062-0.416-0.243c-0.044-0.183,0.066-0.369,0.248-0.419c1.077-0.215,2.191,0.112,2.981,0.876
			c0.141,0.128,0.151,0.345,0.023,0.486l-0.001,0.001C344.797,171.218,344.738,171.253,344.674,171.27z"/>
		<path style="fill:#B97964;" d="M366.476,167.367c1.384,8.599,2.157,12.216-1.15,17.531c-5.552,5.903-15.853,7.824-19.778-0.197
			c-3.535-7.215-5.2-20.034,2.343-25.324c5.378-3.768,12.793-2.463,16.561,2.915C365.512,163.803,366.204,165.541,366.476,167.367z"
			/>
		<path style="opacity:0.2;" d="M356.989,189.694l-0.116-0.415c-0.257-0.917-1.258-1.404-2.138-1.038l-3.388,1.408
			C353.124,190.143,355.06,190.128,356.989,189.694z"/>
		<polygon style="fill:#B97964;" points="356.39,187.553 359.913,200.139 370.343,196.559 365.243,183.868 		"/>
		<path style="fill:#407BFF;" d="M373.844,196.275l-2.774-5.832c-0.298-0.628-0.938-1.033-1.738-1.122
			c-2.365-0.261-7.585-0.384-15.863,3.016c-1.897,0.779-3.684,2.66-2.987,3.348l3.19,3.153L373.844,196.275z"/>
		<path style="opacity:0.1;" d="M372.087,192.583c-7.618-0.769-15.395,1.583-20.991,3.71l2.576,2.546l20.172-2.564L372.087,192.583z
			"/>
		<g>
			<path style="fill:#407BFF;" d="M349.362,197.251c0,0,7.043-4.14,18.009-4.769c10.967-0.628,9.427,4.697,9.427,4.697
				L349.362,197.251z"/>
			<path style="opacity:0.3;fill:#FFFFFF;" d="M349.362,197.251c0,0,7.043-4.14,18.009-4.769c10.967-0.628,9.427,4.697,9.427,4.697
				L349.362,197.251z"/>
		</g>
		<g>
			<g>
				<polygon style="fill:#B97964;" points="366.675,373.026 373.618,393.296 381.934,390.965 377.32,370.956 				"/>
				<polygon style="opacity:0.2;" points="380.36,384.138 377.32,370.956 366.675,373.026 371.015,385.697 				"/>
			</g>
			<g>
				<path style="fill:#407BFF;" d="M369.97,395.092c-1.081,0.271-2.248,0.354-2.722-0.021c-0.254-0.225-0.337-0.586-0.209-0.9
					c0.085-0.275,0.274-0.507,0.527-0.645c1.351-0.763,4.819,0.208,4.972,0.251c0.086,0.024,0.148,0.1,0.153,0.189
					c0.005,0.089-0.044,0.171-0.124,0.211C371.729,394.558,370.86,394.864,369.97,395.092z M368.163,393.747
					c-0.134,0.031-0.262,0.081-0.381,0.15c-0.164,0.072-0.286,0.216-0.332,0.389c-0.088,0.295-0.004,0.405,0.072,0.46
					c0.545,0.465,2.741-0.072,4.309-0.678C370.639,393.731,369.394,393.622,368.163,393.747z"/>
				<path style="fill:#407BFF;" d="M372.534,394.183c-0.027,0.015-0.058,0.02-0.088,0.014c-1.155-0.2-3.717-1.561-3.777-2.585
					c-0.038-0.241,0.067-0.572,0.62-0.772c0.403-0.148,0.849-0.124,1.234,0.064c1.336,0.632,2.156,2.919,2.195,3.025
					c0.024,0.073,0.007,0.153-0.046,0.209C372.634,394.17,372.584,394.186,372.534,394.183z M369.525,391.196l-0.121,0.019
					c-0.362,0.124-0.349,0.28-0.352,0.336c0.095,0.603,1.835,1.733,3.072,2.1c-0.35-0.96-0.987-1.789-1.824-2.375
					C370.061,391.156,369.785,391.128,369.525,391.196L369.525,391.196z"/>
				<path style="fill:#263238;" d="M373.149,392.738l9.489-2.381c0.358-0.09,0.73,0.08,0.896,0.409l3.653,7.29
					c0.329,0.644,0.073,1.433-0.571,1.762c-0.083,0.042-0.17,0.076-0.259,0.099c-3.436,0.799-6.524,1.375-10.782,2.45
					c-5.025,1.263-3.599,1.544-9.487,3.111c-3.548,0.941-5.215-2.943-3.756-3.521c6.691-2.604,6.885-4.87,8.929-8.012
					C371.721,393.325,372.393,392.895,373.149,392.738z"/>
			</g>
			<g>
				<g>
					<path style="fill:#263238;" d="M374.553,274.481c0,0-29.891,8.54-34.017,21.187c-2.929,8.979,27.174,83.479,27.174,83.479
						l12.158-2.074c-9.935-68.134-16.426-74.09-16.426-74.09s20.511-5.429,35.243-7.302c14.732-1.873,8.797-18.793,7.392-25.208
						c-0.307-1.401-0.723-5.69-0.723-5.69l-31.788,4.041L374.553,274.481z"/>
				</g>
			</g>
			<g style="opacity:0.1;">
				<g>
					<path d="M374.553,274.481c0,0-29.891,8.54-34.017,21.187c-2.929,8.979,27.174,83.479,27.174,83.479l12.158-2.074
						c-9.935-68.134-16.426-74.09-16.426-74.09s20.511-5.429,35.243-7.302c14.732-1.873,8.797-18.793,7.392-25.208
						c-0.307-1.401-0.723-5.69-0.723-5.69l-31.788,4.041L374.553,274.481z"/>
				</g>
			</g>
			<g>
				<polygon style="fill:#263238;" points="365.948,376.33 380.008,374.118 381.608,380.922 367.74,383.292 				"/>
			</g>
			<polygon style="opacity:0.3;fill:#FFFFFF;" points="365.948,376.33 380.008,374.118 381.608,380.922 367.74,383.292 			"/>
		</g>
		<g>
			<g>
				<polygon style="fill:#B97964;" points="336.139,380.848 345.574,400.245 353.459,398.154 346.643,377.197 				"/>
				<polygon style="opacity:0.2;" points="351.19,391.178 346.643,377.197 336.139,380.848 342.273,393.458 				"/>
			</g>
			<path style="fill:#263238;" d="M362.721,270.531c0.312,1.539-0.543,3.072-2.02,3.606c-10.971,3.966-53.256,22.611-57.631,33.575
				c-3.569,8.943,33.952,78.739,33.952,78.739l12.916-3.788c-15.59-63.901-22.833-67.31-22.833-67.31s46.926-18.408,62.036-19.347
				c15.11-0.939,9.09-25.127,9.09-25.127l-0.663-5.216l-34.933,4.441L362.721,270.531z"/>
			<g>
				<polygon style="fill:#263238;" points="334.943,384.352 350.275,380.064 352.282,386.394 337.599,390.749 				"/>
			</g>
			<polygon style="opacity:0.3;fill:#FFFFFF;" points="334.943,384.352 350.275,380.064 352.282,386.394 337.599,390.749 			"/>
			<g>
				<path style="fill:#407BFF;" d="M340.697,401.461c-1.117,0.205-2.309,0.213-2.768-0.199c-0.243-0.246-0.305-0.618-0.154-0.929
					c0.105-0.274,0.313-0.497,0.579-0.622c1.425-0.688,4.889,0.527,5.041,0.581c0.086,0.03,0.144,0.112,0.144,0.203
					c-0.001,0.09-0.057,0.172-0.14,0.206C342.522,401.033,341.618,401.288,340.697,401.461z M338.947,399.975
					c-0.138,0.023-0.272,0.066-0.397,0.127c-0.172,0.063-0.306,0.201-0.363,0.375c-0.109,0.294-0.03,0.412,0.043,0.473
					c0.524,0.508,2.794,0.107,4.428-0.407C341.467,400.121,340.208,399.929,338.947,399.975z"/>
				<path style="fill:#407BFF;" d="M343.366,400.704c-0.028,0.014-0.061,0.017-0.091,0.008c-1.162-0.279-3.679-1.831-3.673-2.877
					c-0.023-0.248,0.106-0.578,0.681-0.744c0.42-0.124,0.872-0.071,1.252,0.146c1.317,0.731,2.002,3.111,2.035,3.221
					c0.02,0.076-0.003,0.156-0.06,0.21C343.468,400.698,343.416,400.711,343.366,400.704z M340.5,397.469l-0.124,0.011
					c-0.377,0.103-0.374,0.262-0.38,0.319c0.057,0.62,1.753,1.884,2.988,2.338c-0.293-0.999-0.887-1.885-1.699-2.536
					C341.048,397.464,340.769,397.417,340.5,397.469L340.5,397.469z"/>
				<path style="fill:#263238;" d="M344.086,399.275l9.81-1.801c0.37-0.068,0.737,0.129,0.884,0.475l3.238,7.655
					c0.292,0.677-0.02,1.463-0.696,1.755c-0.087,0.037-0.177,0.066-0.27,0.084c-3.548,0.587-6.728,0.971-11.129,1.785
					c-5.195,0.955-3.763,1.335-9.855,2.543c-3.671,0.724-5.113-3.335-3.59-3.828c6.977-2.21,7.323-4.503,9.609-7.565
					C342.595,399.779,343.306,399.386,344.086,399.275z"/>
			</g>
		</g>
		<path style="fill:#407BFF;" d="M340.405,202.572c-0.237-1.732,1.003-3.321,2.758-3.509c0,0,18.852-4.185,27.773-3.667
			c6.61,0.384,13.013,2.128,16.941,7.398c7.642,10.251,12.708,20.034,17.983,62.577l-43.153,5.374c0,0-1.914-7.559-6.34-20.868
			C351.457,235.107,342.405,217.164,340.405,202.572z"/>
		<path style="opacity:0.2;" d="M343.308,211.628c1.615,5.999,3.785,12.309,6.038,18.533c6.419-17.136-0.75-24.09-0.75-24.09
			L343.308,211.628z"/>
		<g>
			<path style="fill:#B97964;" d="M363.563,239.37l-21.061,5.654c0,0-6.802-3.384-9.28-3.534c-1.249-0.076-4.035,0.261-4.858,1.204
				c-0.857,0.983-1.145,4.022-0.557,5.186c0.467,0.924,2.621,1.688,3.575,2.089c1.392,0.585,5.827,1.594,5.827,1.594l6.048-1.022
				l23.675-1.582L363.563,239.37z"/>
			<path style="fill:#407BFF;" d="M363.831,250.163c2.495-0.289,4.502-0.718,5.517-1.344c4.447-2.743,14.197-22.404,18.539-32.481
				c1.792-4.16,2.043-11.944-5.87-19.241c-0.649-0.599-1.678-0.489-2.163,0.248c-2.549,3.867-6.287,11.42-17.079,38.754
				l-2.969,1.037L363.831,250.163z"/>
			<path style="opacity:0.6;fill:#FFFFFF;" d="M363.831,250.163c2.495-0.289,4.502-0.718,5.517-1.344
				c4.447-2.743,14.197-22.404,18.539-32.481c1.792-4.16,2.043-11.944-5.87-19.241c-0.649-0.599-1.678-0.489-2.163,0.248
				c-2.549,3.867-6.287,11.42-17.079,38.754l-2.969,1.037L363.831,250.163z"/>
			<g>
				<path style="fill:#407BFF;" d="M357.839,237.344l3.784-1.433c0,0,1.021,7.406,5.486,14.453l-5.308,0.675
					C361.801,251.039,357.915,245.425,357.839,237.344z"/>
				<path style="opacity:0.4;fill:#FFFFFF;" d="M357.839,237.344l3.784-1.433c0,0,1.021,7.406,5.486,14.453l-5.308,0.675
					C361.801,251.039,357.915,245.425,357.839,237.344z"/>
			</g>
		</g>
		<g>
			<g>
				<path style="fill:#263238;" d="M429.413,400.938l-32.879-12.107l-33.237,12.117c-1.147,0.418-2.362-0.431-2.362-1.653l0,0
					c0-0.685,0.397-1.307,1.019-1.596l34.579-16.044l34.231,16.043c0.617,0.289,1.012,0.909,1.012,1.591l0,0
					C431.777,400.512,430.56,401.361,429.413,400.938z"/>
				<path style="opacity:0.5;fill:#FFFFFF;" d="M429.413,400.938l-32.879-12.107l-33.237,12.117
					c-1.147,0.418-2.362-0.431-2.362-1.653l0,0c0-0.685,0.397-1.307,1.019-1.596l34.579-16.044l34.231,16.043
					c0.617,0.289,1.012,0.909,1.012,1.591l0,0C431.777,400.512,430.56,401.361,429.413,400.938z"/>
				<polygon style="opacity:0.2;" points="388.786,391.655 396.534,388.831 403.927,391.553 403.927,385.12 396.534,381.655 
					388.786,385.25 				"/>
				<path style="fill:#263238;" d="M396.357,401.219L396.357,401.219c-1.505,0-2.763-1.144-2.906-2.643l-0.928-9.746v-87.894h7.669
					v87.894l-0.928,9.746C399.12,400.075,397.862,401.219,396.357,401.219z"/>
				<path style="opacity:0.5;fill:#FFFFFF;" d="M396.357,401.219L396.357,401.219c-1.505,0-2.763-1.144-2.906-2.643l-0.928-9.746
					v-87.894h7.669v87.894l-0.928,9.746C399.12,400.075,397.862,401.219,396.357,401.219z"/>
				<rect x="392.522" y="300.936" style="opacity:0.2;" width="7.669" height="9.42"/>
			</g>
			<g>
				<g>
					<path style="fill:#407BFF;" d="M445.332,303.958c-7.975-2.034-16.17-3.152-24.388-3.358
						c-8.469-0.212-40.168-0.032-47.697-0.035c-9.163-0.004-18.327,1.126-27.217,3.393c-5.589,1.425-3.866,9.49,1.182,9.584
						c0.446,0.008,96.273-0.021,96.625-0.005C449.117,313.777,451.043,305.414,445.332,303.958z"/>
					<path style="opacity:0.5;" d="M445.332,303.958c-7.975-2.034-16.17-3.152-24.388-3.358c-8.469-0.212-40.168-0.032-47.697-0.035
						c-9.163-0.004-18.327,1.126-27.217,3.393c-5.589,1.425-3.866,9.49,1.182,9.584c0.446,0.008,96.273-0.021,96.625-0.005
						C449.117,313.777,451.043,305.414,445.332,303.958z"/>
				</g>
				<g>
					<path style="fill:#407BFF;" d="M348.625,313.369c16.097-4.105,33.148-4.105,49.245,0c6.089,1.553,8.687-7.858,2.595-9.412
						c-17.78-4.534-36.654-4.534-54.435,0C339.948,305.509,342.526,314.925,348.625,313.369L348.625,313.369z"/>
				</g>
				<g style="opacity:0.2;">
					<path d="M348.625,313.369c16.097-4.105,33.148-4.105,49.245,0c6.089,1.553,8.687-7.858,2.595-9.412
						c-17.78-4.534-36.654-4.534-54.435,0C339.948,305.509,342.526,314.925,348.625,313.369L348.625,313.369z"/>
				</g>
			</g>
			<g>
				<circle style="fill:#407BFF;" cx="396.357" cy="406.836" r="3.834"/>
			</g>
			<g>
				<path style="fill:#407BFF;" d="M435.612,406.836c0,2.118-1.717,3.834-3.834,3.834c-2.118,0-3.834-1.717-3.834-3.834
					c0-2.118,1.717-3.834,3.834-3.834C433.895,403.001,435.612,404.718,435.612,406.836z"/>
			</g>
			<g>
				<circle style="fill:#407BFF;" cx="360.769" cy="406.836" r="3.834"/>
			</g>
		</g>
		<path style="fill:#407BFF;" d="M399.891,320.267l9.755,18.24c14.213,1.544,25.746,5.207,25.746,5.207
			c-4.475-19.928-26.191-63.37-28.158-74.88c-1.967-11.511-6.775-57.264-20.682-68.858c-11.093-9.249-39.09-3.162-45.609-0.618
			c-6.529,2.548,3.704,24.51,9.979,39.881c6.275,15.372,10.684,32.791,10.684,32.791c-23.879,6.198,10.942,70.936,10.942,70.936
			c8.629-4.526,19.711-5.521,30.161-5.012L399.891,320.267z"/>
		<path style="opacity:0.7;fill:#FFFFFF;" d="M399.891,320.267l9.755,18.24c14.213,1.544,25.746,5.207,25.746,5.207
			c-4.475-19.928-26.191-63.37-28.158-74.88c-1.967-11.511-6.775-57.264-20.682-68.858c-11.093-9.249-39.09-3.162-45.609-0.618
			c-6.529,2.548,3.704,24.51,9.979,39.881c6.275,15.372,10.684,32.791,10.684,32.791c-23.879,6.198,10.942,70.936,10.942,70.936
			c8.629-4.526,19.711-5.521,30.161-5.012L399.891,320.267z"/>
		<path style="opacity:0.2;" d="M356.051,289.453l13.088,0.856c0,0,4.779,13.859-4.792,14.125
			C356.487,304.652,356.051,289.453,356.051,289.453z"/>
		<g>
			<g>
				<path style="fill:#263238;" d="M292.741,220.134l-0.745,0.768c-0.28,0.289-0.293,0.735-0.048,1.042
					c-0.825,0.236-1.708,0.769-2.475,1.559c-0.817,0.842-1.339,1.809-1.522,2.685c-0.315-0.294-0.807-0.284-1.108,0.026
					l-0.745,0.768c-0.305,0.314-0.297,0.815,0.017,1.12l2.518,2.443c0.314,0.305,0.815,0.297,1.12-0.017l0.745-0.768
					c0.301-0.31,0.296-0.803-0.007-1.108c0.87-0.21,1.821-0.761,2.638-1.603c0.766-0.79,1.272-1.69,1.483-2.521
					c0.314,0.235,0.76,0.209,1.04-0.08l0.745-0.768c0.305-0.314,0.297-0.815-0.017-1.12l-2.518-2.443
					C293.547,219.813,293.046,219.82,292.741,220.134z"/>
				<path style="fill:#263238;" d="M300.318,233.116l-7.165-6.95l-1.013,1.045l7.165,6.95c0.291,0.282,0.495,0.641,0.589,1.034
					l0.196,0.823c0.091,0.382,0.289,0.729,0.57,1.002l9.821,9.526c0.411,0.399,1.069,0.389,1.468-0.022l1.113-1.147
					c0.399-0.411,0.389-1.069-0.022-1.468l-9.821-9.526c-0.281-0.273-0.635-0.46-1.019-0.539l-0.829-0.171
					C300.973,233.591,300.608,233.398,300.318,233.116z"/>
				<path style="opacity:0.4;fill:#FFFFFF;" d="M300.318,233.116l-7.165-6.95l-1.013,1.045l7.165,6.95
					c0.291,0.282,0.495,0.641,0.589,1.034l0.196,0.823c0.091,0.382,0.289,0.729,0.57,1.002l9.821,9.526
					c0.411,0.399,1.069,0.389,1.468-0.022l1.113-1.147c0.399-0.411,0.389-1.069-0.022-1.468l-9.821-9.526
					c-0.281-0.273-0.635-0.46-1.019-0.539l-0.829-0.171C300.973,233.591,300.608,233.398,300.318,233.116z"/>
				<path d="M295.81,223.111l-0.745,0.768c-0.28,0.289-0.726,0.315-1.04,0.08c-0.211,0.831-0.717,1.731-1.483,2.521
					c-0.817,0.842-1.768,1.394-2.638,1.603c0.303,0.305,0.308,0.798,0.007,1.108l-0.745,0.768c-0.305,0.314-0.806,0.322-1.12,0.017
					l0.586,0.568c0.314,0.305,0.815,0.297,1.12-0.017l0.745-0.768c0.301-0.31,0.296-0.803-0.007-1.108
					c0.87-0.21,1.821-0.761,2.638-1.603c0.766-0.79,1.272-1.69,1.483-2.521c0.314,0.235,0.76,0.209,1.04-0.08l0.745-0.768
					c0.305-0.314,0.297-0.815-0.017-1.12l-0.586-0.569C296.107,222.296,296.115,222.797,295.81,223.111z"/>
			</g>
			<g>
				<path style="fill:#B97964;" d="M344.82,243.392l-21.555,2.424l-8.204-5.377l-7.068-0.576c-0.572,0.156-1.024,0.593-1.199,1.159
					l-0.8,2.586c-0.384,1.242,3.947,4.479,3.947,4.479s4.835,2.625,6.597,3.084c1.484,0.387,4.595,0.257,6.117,0.445
					c5.887,0.728,22.63,2.704,22.63,2.704L344.82,243.392z"/>
				<path style="fill:#407BFF;" d="M345.858,253.95c2.128-1.334,3.756-2.584,4.403-3.585c2.835-4.388,3.184-26.332,2.771-37.296
					c-0.149-3.959-2.555-9.914-10.035-13.476c-2.575-1.227-5.575,0.652-5.712,3.501c-0.265,5.529,0,15.678,1.572,38.614
					l-2.235,2.214L345.858,253.95z"/>
				<path style="opacity:0.6;fill:#FFFFFF;" d="M345.858,253.95c2.128-1.334,3.756-2.584,4.403-3.585
					c2.835-4.388,3.184-26.332,2.771-37.296c-0.149-3.959-2.555-9.914-10.035-13.476c-2.575-1.227-5.575,0.652-5.712,3.501
					c-0.265,5.529,0,15.678,1.572,38.614l-2.235,2.214L345.858,253.95z"/>
				<g>
					<path style="fill:#407BFF;" d="M336.619,243.871l1.117-1.84c0,0,4.106,6.247,11.168,10.69l-4.502,2.892
						C344.402,255.613,340.162,251.135,336.619,243.871z"/>
					<path style="opacity:0.3;fill:#FFFFFF;" d="M336.619,243.871l1.117-1.84c0,0,4.106,6.247,11.168,10.69l-4.502,2.892
						C344.402,255.613,340.162,251.135,336.619,243.871z"/>
				</g>
			</g>
		</g>
		<path style="fill:#263238;" d="M351.05,174.965c0,0-9.166-5.765-7.121-11.947c0,0-5.036-2.636,0.197-6.955
			c5.233-4.319,8.129-1.033,8.129-1.033s5.436-5.079,11.295-0.68c4.736,3.556,3.645,7.86,3.645,7.86s4.472,2.071,5.044,8.954
			c0.444,5.334-2.631,7.055-2.631,7.055s2.364,7.697-7.032,7.631C353.181,185.783,351.05,174.965,351.05,174.965z"/>
		<path style="fill:#B97964;" d="M349.28,174.664c-0.089,1.777,0.534,3.516,1.73,4.834c1.601,1.735,3.655,0.609,4.261-1.537
			c0.549-1.945,0.363-5.174-1.754-6.117C351.4,170.9,349.414,172.492,349.28,174.664z"/>
	</g>
</g>
</svg>
