<?xml version="1.0" encoding="utf-8"?>
<!-- Generator: Adobe Illustrator 27.5.0, SVG Export Plug-In . SVG Version: 6.00 Build 0)  -->
<svg version="1.1" xmlns="http://www.w3.org/2000/svg" xmlns:xlink="http://www.w3.org/1999/xlink" x="0px" y="0px"
	 viewBox="0 0 500 500" style="enable-background:new 0 0 500 500;" xml:space="preserve">
<g id="BACKGROUND">
	<g>
		<rect style="fill:#FFFFFF;" width="500" height="500"/>
		<g>
			<g>
				<defs>
					<path id="SVGID_1_" d="M452.603,349.231h-127.35V114.693c0-35.167,28.508-63.675,63.675-63.675h0
						c35.167,0,63.675,28.508,63.675,63.675V349.231z"/>
				</defs>
				<clipPath id="SVGID_00000024723173898060012200000005177855696047044995_">
					<use xlink:href="#SVGID_1_"  style="overflow:visible;"/>
				</clipPath>
				<path style="clip-path:url(#SVGID_00000024723173898060012200000005177855696047044995_);fill:#F3F3F3;" d="M452.603,349.231
					h-127.35V114.693c0-35.167,28.508-63.675,63.675-63.675h0c35.167,0,63.675,28.508,63.675,63.675V349.231z"/>
				
					<rect x="386.825" y="58.699" transform="matrix(-1.836970e-16 1 -1 -1.836970e-16 515.2483 -262.6077)" style="clip-path:url(#SVGID_00000024723173898060012200000005177855696047044995_);fill:#FFFFFF;" width="4.206" height="135.242"/>
				
					<rect x="386.825" y="189.006" transform="matrix(-1.836970e-16 1 -1 -1.836970e-16 645.5551 -132.3009)" style="clip-path:url(#SVGID_00000024723173898060012200000005177855696047044995_);fill:#FFFFFF;" width="4.206" height="135.242"/>
				
					<rect x="386.825" y="40.421" style="clip-path:url(#SVGID_00000024723173898060012200000005177855696047044995_);fill:#FFFFFF;" width="4.206" height="323.772"/>
			</g>
			<g>
				<defs>
					<path id="SVGID_00000022530024377248474640000009814214350297761694_" d="M309.741,349.231h-127.35V114.693
						c0-35.167,28.508-63.675,63.675-63.675h0c35.167,0,63.675,28.508,63.675,63.675V349.231z"/>
				</defs>
				<clipPath id="SVGID_00000088849566344057968730000011578980218785059233_">
					<use xlink:href="#SVGID_00000022530024377248474640000009814214350297761694_"  style="overflow:visible;"/>
				</clipPath>
				<path style="clip-path:url(#SVGID_00000088849566344057968730000011578980218785059233_);fill:#F3F3F3;" d="M309.741,349.231
					h-127.35V114.693c0-35.167,28.508-63.675,63.675-63.675h0c35.167,0,63.675,28.508,63.675,63.675V349.231z"/>
				
					<rect x="243.963" y="58.699" transform="matrix(-1.836970e-16 1 -1 -1.836970e-16 372.3863 -119.7457)" style="clip-path:url(#SVGID_00000088849566344057968730000011578980218785059233_);fill:#FFFFFF;" width="4.206" height="135.242"/>
				
					<rect x="243.963" y="189.006" transform="matrix(-1.836970e-16 1 -1 -1.836970e-16 502.6931 10.5611)" style="clip-path:url(#SVGID_00000088849566344057968730000011578980218785059233_);fill:#FFFFFF;" width="4.206" height="135.242"/>
				
					<rect x="243.963" y="40.421" style="clip-path:url(#SVGID_00000088849566344057968730000011578980218785059233_);fill:#FFFFFF;" width="4.206" height="323.772"/>
			</g>
			<g>
				<defs>
					<path id="SVGID_00000096043998022036652830000000264192236990774167_" d="M166.879,349.231H39.529V114.693
						c0-35.167,28.508-63.675,63.675-63.675h0c35.167,0,63.675,28.508,63.675,63.675V349.231z"/>
				</defs>
				<clipPath id="SVGID_00000044167704692226883630000010161225351860809628_">
					<use xlink:href="#SVGID_00000096043998022036652830000000264192236990774167_"  style="overflow:visible;"/>
				</clipPath>
				<path style="clip-path:url(#SVGID_00000044167704692226883630000010161225351860809628_);fill:#F3F3F3;" d="M166.879,349.231
					H39.529V114.693c0-35.167,28.508-63.675,63.675-63.675h0c35.167,0,63.675,28.508,63.675,63.675V349.231z"/>
				
					<rect x="101.101" y="58.699" transform="matrix(-1.836970e-16 1 -1 -1.836970e-16 229.5244 23.1162)" style="clip-path:url(#SVGID_00000044167704692226883630000010161225351860809628_);fill:#FFFFFF;" width="4.206" height="135.242"/>
				
					<rect x="101.101" y="189.006" transform="matrix(-1.836970e-16 1 -1 -1.836970e-16 359.8312 153.423)" style="clip-path:url(#SVGID_00000044167704692226883630000010161225351860809628_);fill:#FFFFFF;" width="4.206" height="135.242"/>
				
					<rect x="101.101" y="40.421" style="clip-path:url(#SVGID_00000044167704692226883630000010161225351860809628_);fill:#FFFFFF;" width="4.206" height="323.772"/>
			</g>
		</g>
	</g>
</g>
<g id="OBJECTS">
	<path style="fill:#E2E2E2;" d="M464.081,448.916c0-3.656-95.848-6.619-214.081-6.619s-214.082,2.964-214.082,6.619
		s95.848,6.619,214.082,6.619S464.081,452.572,464.081,448.916z"/>
	<g>
		<g>
			<path style="fill:#529665;" d="M155.443,421.909c-0.305-13.999,12.672-53.279,12.672-53.279c-2.439-5.292-2.093-12.25,1.354-16.9
				c3.474-4.686,8.478-2.961,8.478-2.961s3.407-6.183,10.765-8.229c7.358-2.046,8.417,2.671,5.092,7.668
				c-3.51,5.276-7.068,7.123-7.068,7.123s2.868,6.255-3.346,12.067c-4.873,4.558-11.867,3.051-11.867,3.051
				c-9.61,12.741-15.422,54.022-15.422,54.022L155.443,421.909z"/>
			<path style="fill:#96CF90;" d="M163.292,412.963c-4.412-18.98,1.583-76.293,1.583-76.293c-4.755-6.492-6.287-16.072-3.038-23.418
				c3.274-7.403,10.414-6.521,10.414-6.521s2.757-9.422,11.945-14.368c9.188-4.947,11.945,1.167,8.959,8.951
				c-3.153,8.217-7.351,11.777-7.351,11.777s5.601,7.678-0.991,17.419c-5.169,7.639-14.89,7.639-14.89,7.639
				c-9.119,20.175-5.022,78.112-5.022,78.112L163.292,412.963z"/>
			<path style="fill:#40746E;" d="M153.529,413.021h1.687c3.003-23.12-2.603-55.521-2.603-55.521
				c4.181-5.566,5.527-13.78,2.671-20.078c-2.878-6.347-9.156-5.591-9.156-5.591s-2.423-8.078-10.502-12.319
				c-8.078-4.241-10.502,1.001-7.876,7.674c2.772,7.045,6.463,10.098,6.463,10.098s-4.924,6.583,0.871,14.935
				c4.545,6.549,13.091,6.549,13.091,6.549C154.509,371.904,154.332,397.558,153.529,413.021z"/>
			<g>
				<path style="fill:#5FAD75;" d="M159.802,395.353c-0.24-20.836-3.701-58.649-7.796-74.844c0,0-15.328-8.128-16.76-21.683
					c-0.859-8.129,4.959-11.434,4.959-11.434c-1.971-6.444-2.431-11.784-1.085-17.851c2.414-10.887,12.277-8.315,14.481,0.63
					c1.23,4.989,2.238,11.006,1.872,15.796c0,0,7.609-0.294,8.811,11.495c1.25,12.259-9.583,19.654-8.979,23.635
					c3.247,21.415,5.966,51.787,5.759,77.834C160.575,397.485,160.323,396.769,159.802,395.353z"/>
			</g>
		</g>
		<polygon style="fill:#E4DBD1;" points="174.44,448.916 147.041,448.916 141.353,375.749 180.128,375.749 		"/>
	</g>
	<g>
		<g>
			<g>
				<g>
					<path style="fill:#EDBFB0;" d="M65.675,420.87c0,0-8.83-2.087-12.325-3.534c0,0-3.989,13.741-4.199,16.878
						c-0.209,3.137-0.312,5.129-0.312,5.129l15.581-0.094c0,0-0.576-3.166-0.551-6.017C63.895,430.38,65.675,420.87,65.675,420.87z"
						/>
					<g>
						<path style="fill:#313858;" d="M46.411,445.773c0.627,1.815,5.814,1.538,17.726,2.144c11.912,0.606,19.062,0.479,18.848-1.431
							c-0.102-0.859-0.193-1.661-0.599-2.389c-0.522-0.9-4.651-4.636-7.078-6.356c-2.436-1.708-6.897-7.574-8.164-8.669
							c-2.026-1.746-6.764,0.068-10.994,0.944c-4.24,0.866-3.859,0.037-5.678-0.768c-0.722-0.318-2.762,1.618-3.371,6.467
							C46.585,439.823,45.766,443.906,46.411,445.773z"/>
					</g>
				</g>
				<path style="fill:#428FB0;" d="M97.288,259.639c0.91,0.727-7.81,62.308-8.919,87.324c-0.306,6.906-0.618,11.941-0.893,13.557
					c-1.271,7.47-18.938,63.3-18.938,63.3s-4.654,3.823-18.111-2.178l9.659-60.656c0,0-3.943-60.653-4.052-69.781
					c-0.232-19.396,8.003-34.75,8.003-34.75L97.288,259.639z"/>
				<g>
					<path style="fill:#EDBFB0;" d="M120.58,420.87c0,0-9.244-2.087-13.026-3.534c0,0-1.262,13.741-0.849,16.878
						c0.413,3.137,0.706,5.129,0.706,5.129l15.563-0.094c0,0-1.205-3.166-1.745-6.017C120.687,430.38,120.58,420.87,120.58,420.87z"
						/>
					<g>
						<path style="fill:#313858;" d="M104.72,445.712c0.695,1.726,7.657,1.599,19.689,2.204c12.032,0.606,19.157,0.479,18.564-1.431
							c-0.272-0.859-0.523-1.661-1.073-2.389c-0.7-0.9-5.571-4.636-8.339-6.356c-2.775-1.708-8.4-7.574-9.885-8.669
							c-2.372-1.746-6.751,0.068-10.807,0.944c-4.068,0.866-3.851,0.037-5.83-0.768c-1.634-0.663-1.886,2.896-2.42,8.56
							C104.228,441.966,103.739,443.277,104.72,445.712z"/>
					</g>
				</g>
				<path style="fill:#428FB0;" d="M119.83,256.454c1.021,0.746,3.751,40.028,5.828,73.685c0.43,6.975,1.016,28.855,1.061,30.471
					c0.211,7.47-1.605,61.853-1.605,61.853s-3.846,8.276-18.493,2.276l-4.647-58.042c0,0-14.846-66.366-16.767-75.494
					c-4.08-19.396,0.746-31.129,0.746-31.129L119.83,256.454z"/>
				<path style="fill:#4D3C37;" d="M145.908,154.834c0.161-2.219,0.68-5.142,2.954-8.805c4.585-6.137,10.922-16.208,3.945-26.198
					c-3.635-5.203-8.271-8.093-13.036-9.69c-5.2-1.743-12.786-4.199-21.57,1.224c-5.752,3.552-8.707,11.799-11.715,21.304
					c-1.327,4.194-8.48,4.171-11.891,7.024c-8.342,6.974-1.958,21.327,16.051,23.745c1.498-4.645,11.548-8.717,17.562-14.064
					c0.001,0.057-0.001,0.116,0,0.173c0.204,11.251-2.358,8.805-3.883,15.462c2.208,4.832,14.007,9.438,19.075,4.625
					C146.946,166.266,145.552,159.734,145.908,154.834z"/>
				<g>
					<path style="fill:#EDBFB0;" d="M133.011,200.771c3.947-8.465,2.148-12.849,5.415-21.57c0,0-9.433-10.829-10.442-12.403
						c-1.959-3.055,2.84-20.871,2.84-20.871l-9.672-9.241c0,0-5.664,15.483-10.941,22.056c-3.641,4.535-11.633,5.451-11.633,5.451
						s-5.954,12.962-0.219,29.141c3.849,10.859,17.651,20.155,26.318,25.1C127.396,212.526,130.254,206.683,133.011,200.771z"/>
				</g>
				<g>
					<path style="fill:#EDBFB0;" d="M133.011,200.771c3.947-8.465,2.148-12.849,5.415-21.57c0,0-9.433-10.829-10.442-12.403
						c-1.959-3.055,2.84-20.871,2.84-20.871l-9.672-9.241c0,0-5.664,15.483-10.941,22.056c-3.641,4.535-11.633,5.451-11.633,5.451
						s-5.954,12.962-0.219,29.141c3.849,10.859,17.651,20.155,26.318,25.1C127.396,212.526,130.254,206.683,133.011,200.771z"/>
				</g>
				<g>
					<path style="fill:#DCB1A3;" d="M127.516,164.002c-1.114-0.341-2.218-0.713-3.306-1.124c-0.33-0.133-0.659-0.27-0.987-0.41
						c-0.492-0.21-0.981-0.428-1.465-0.655c-0.963-0.449-1.912-0.929-2.843-1.443c-0.997-0.551-1.973-1.14-2.922-1.771
						c-0.112-0.074-0.716-0.496-0.929-0.64c-0.219-0.177-0.941-0.739-1.065-0.842c-0.566-0.469-1.111-0.962-1.645-1.467
						c4.56-7.382,8.799-18.965,8.799-18.965l9.672,9.241C130.825,145.927,127.563,158.039,127.516,164.002z"/>
				</g>
				<path style="fill:#EDBFB0;" d="M151.419,127.556c-0.835,3.34-4.769,11.196-7.081,17.169c-1.156,2.987-2.098,7.93-6.744,11.993
					c-2.946,2.576-7.384,5.295-10.985,4.136c-3.062-0.985-5.088-3.361-7.185-6.772c-3.302-5.371-3.511-11.078-3.055-14.977
					c0.456-3.899,3.487-10.214,7.56-16.239c4.072-6.025,9.384-6.854,14.599-5.659C143.743,118.403,151.419,127.556,151.419,127.556z
					"/>
				<path style="fill:#4D3C37;" d="M131.862,131.449c8.881-2.473,12.363-6.657,14.978-12.01c0,0-4.864-6.008-13.663-4.803
					c-18.2,2.493-16.288,11.098-18.404,18.299C119.69,128.887,122.929,133.936,131.862,131.449z"/>
				<path style="fill:#4D3C37;" d="M140.284,116.236c2.917,1.608,9.033,11.008,8.224,18.01c-1.003,8.678,2.999-0.816,2.999-0.816
					l1.71-4.246c0,0-3.073-10.595-8.298-12.276C139.693,115.227,140.284,116.236,140.284,116.236z"/>
				<path style="fill:#EDBFB0;" d="M123.476,134.602c0,0-1.615-5.916-4.291-6.237c-2.675-0.322-4.616,3.599-4.275,7.62
					c0.341,4.022,6.202,8.669,6.202,8.669L123.476,134.602z"/>
				<path style="fill:#EDBFB0;" d="M186.722,249.293c-1.791-0.32-3.912-0.749-4.647-1.105c-14.099-6.826-20.99-9.303-24.311-10.533
					c0,0-0.808-4.806-1.864-7.715c-1.738-4.79-4.77-14.88-7.274-23.437c-6.197,2.347-12.288,4.975-18.422,7.491
					c3.579,8.304,10.006,22.794,15.099,31.958c0.715,1.287,5.322,5.861,12.614,7.203c9.961,1.834,22.037,3.519,28.924,4.432
					c0.033,0.039,0.065,0.075,0.098,0.114c0.019,0.004,0.042,0.011,0.061,0.016C186.902,254.91,186.814,252.101,186.722,249.293z"/>
				<g>
					<path style="fill:#4EA9D0;" d="M136.715,223.589c-1.915,0.06-2.532-2.599-4.62-2.695c-3.412-11.24-6.437-17.666-6.437-17.666
						s2.852-26.931,9.636-29.944c0,0,5.774,5.907,9.997,11.781c4.792,6.664,8.174,24.003,7.882,35.159
						C147.036,221.961,143.07,223.39,136.715,223.589z"/>
				</g>
				<g>
					<path style="fill:#273C54;" d="M152.919,212.162c0.377,3.44,0.652,6.191,0.884,9.222c-3.538,1.339-12.932,4.422-21.13,3.068
						c-0.922-3.568-2.348-8.673-2.348-8.673C138.91,216.661,145.634,214.742,152.919,212.162z"/>
				</g>
				<path style="fill:#4EA9D0;" d="M136.63,203.329c0.258,3.607-1.976,9.122-7.212,13.196c0,0-3.038,8.454-3.644,12.824
					c-0.423,3.051-3.042,13.205-3.261,16.781c-1.04,16.938-1.317,20.746-1.317,20.746s-13.829,2.001-29.499,0.624
					c-22.483-1.975-29.865-8.329-29.865-8.329s0.69-3.604,5.58-15.417c2.004-4.84,7.229-23.125,8.152-28.841
					c3.48-21.552-1.66-21.938-0.913-25.688c1.481-7.435,7.859-18.841,12.563-22.659c5.233-4.247,20.862-6.166,20.862-6.166
					s-0.189,5.26,1.322,10.922c1.631,6.113,6.011,10.316,7.865,10.469c9.668,0.802,11.921-14.343,11.921-14.343l6.11,5.835
					C135.294,173.283,135.611,189.058,136.63,203.329z"/>
				
					<rect x="91.834" y="195.175" transform="matrix(-0.9625 -0.2713 0.2713 -0.9625 139.9824 413.5215)" style="fill:#FFFFFF;" width="13.48" height="3.821"/>
			</g>
			<g>
				<g>
					<path style="fill:#BD8368;" d="M142.582,231.434l0.072-0.069c9.352,6.915,24.205,18.006,29.234,21.319
						c2.518-4.163,4.97-8.36,7.291-12.627c-5.593-2.751-28.575-18.328-30.151-19.137c-1.47-1.003-2.687-1.841-3.567-2.453
						c-0.002-0.003-0.005-0.005-0.007-0.008c-1.359-1.745-4.938-5.354-6.091-9.75c-1.154-4.396-0.494-14.847-0.472-17.104
						c0.022-2.257-0.72-3.935-0.716-5.405c0.004-1.47-1.191-2.822-1.191-2.822c0.463-1.454-1.11-2.347-2.513-0.703
						c-1.404,1.644-2.601,7.645-4.506,14.354c-1.905,6.709-5.972,18.017-6.785,21.297c-0.813,3.28-0.762,5.671,2.337,6.877
						c3.099,1.206,6.235,0.839,8.712,1.079c0.679,0.066,1.363,0.215,2.085,0.422c0.431,0.145,1.479,1.071,3.086,2.257
						C140.328,229.689,141.357,230.506,142.582,231.434z"/>
					<path style="fill:#252B42;" d="M144.888,230.757c1.982-3.361,4.637-5.801,7.688-7.995c11.57,6.069,56.175,29.507,65.131,34.807
						c11.143,6.595,15.253,7.536,27.443,13.288c17.053,8.046,50.905,24.074,58.596,29.061c11.175,7.247,18.572,12.018,22.649,16.556
						c-9.451,9.791-17.82,19.867-31.224,22.076c-13.279,2.188-27.865-8.539-41.894-18.249
						c-12.544-8.683-43.241-35.345-43.241-35.345s-21.908-12.96-37.338-25.022c-11.456-8.955-24.341-23.049-28.831-27.282
						C144.189,232.009,144.524,231.374,144.888,230.757z"/>
				</g>
				<path style="fill:#A27059;" d="M383.832,318.772c4.144,3.886,7.598,7.997,12.289,10.39c4.692,2.392,29.621,12.511,33.629,14.786
					c4.008,2.275,10.226,7.042,15.92,13.831c5.694,6.789,13.858,19.093,17.271,20.737s12.247,2.463,14.699,2.533
					c2.452,0.071,4.014,1.22,3.094,2.469c-0.919,1.249-4.479,0.46-6.506,0.991c-2.027,0.531-2.805,1.98-2.805,1.98
					s2.511,4.833,4.721,7.325c2.21,2.493,8.582,5.351,9.313,7.237c0.731,1.886-2.829,1.096-2.829,1.096s-2.145,1.214-3.937,0.378
					c-1.792-0.837-3.618-2.493-3.618-2.493s-1.272,1.255-3.76-0.648c-2.488-1.903-4.816-3.712-7.309-6.606
					c-2.493-2.894-6.124-6.335-11.546-10.614c-5.422-4.278-19.816-18.795-25.904-22.274c-6.088-3.479-21.896-11.835-29.557-13.331
					s-17.275-5.969-23.952-10.112c-6.678-4.143-15.907-5.733-18.796-9.399c-2.888-3.666,3.464-18.058,13.925-17.487
					C378.633,310.133,380.358,315.515,383.832,318.772z"/>
				<path style="fill:#BD8368;" d="M356.689,293.052c11.379,3.743,24.301,7.676,28.948,14.936
					c4.951,7.734-2.513,22.152-2.513,22.152l-22.009-4.342L356.689,293.052z"/>
				<g>
					<path style="fill:#31293F;" d="M440.88,312.342c-2.375-3.235-6.607-4.998-10.576-4.405c-1.441-3.263-6.244-4.403-8.997-2.135
						c-0.908-2.814-3.817-4.848-6.772-4.735c-2.955,0.113-5.7,2.363-6.39,5.238c-1.881-1.588-4.62-2.09-6.942-1.273
						c-2.322,0.818-4.143,2.925-4.614,5.341c-1.392-1.17-3.545-0.833-5.112,0.09c-3.508,2.064-5.107,6.858-3.543,10.615
						c0.189,0.453,0.42,0.901,0.472,1.389c0.096,0.904-0.43,1.741-0.69,2.611c-0.595,1.989,0.267,4.214,1.768,5.649
						c1.501,1.435,3.539,2.181,5.579,2.571c2.552,0.488,5.68,0.223,7.039-1.991c0.705,2.837,2.781,5.299,5.457,6.474
						c2.676,1.175,5.894,1.036,8.459-0.364c0.744-0.406,1.483-0.926,2.33-0.942c0.627-0.012,1.218,0.257,1.811,0.46
						c4.225,1.45,9.374-0.778,11.208-4.851c2.337,1.958,6.095,1.942,8.415-0.037c2.936-2.504,1.611-5.82,2.447-9.001
						C443.215,319.292,443.302,315.641,440.88,312.342z"/>
					<path style="fill:#BD8368;" d="M380.604,305.283c0.118,0.443,0.226,0.891,0.293,1.353c0.933,6.511-1.841,13.885-6.317,19.302
						c4.317,0.374,9.32,0.911,13.634,1.675c9.854,1.746,12.932,5.212,12.932,5.212l-7.6-24.348
						c-2.33,1.322-7.988-1.408-12.863-3.963C380.665,304.772,380.626,305.025,380.604,305.283z"/>
					<path style="fill:#A27059;" d="M387.082,320.94c3.407-2.559,5.851-6.097,7.209-10.075l6.854,21.959
						c0,0-3.078-3.465-12.932-5.212c-3.661-0.649-7.794-1.126-11.607-1.486c1.116-0.174,2.232-0.409,3.348-0.774
						C383.084,324.326,385.385,322.806,387.082,320.94z"/>
					<path style="fill:#BD8368;" d="M430.605,313.864c-1.903-3.245-5.724-5.663-7.569-6.599c-1.845-0.936-4.585-1.166-6.157-2.76
						c-2.714-2.751-4.865-4.372-5.695-5.189c-0.83-0.817-2.257,1.964-3.081,1.97c-0.824,0.007-7.014-1.193-10.124-1.866
						c-3.11-0.672-4.637,4.955-5.297,9.713c-0.659,4.758,0.667,10.09,1.134,13.127c0.468,3.038,6.984,9.767,6.984,9.767
						l14.331,9.392c0,0,9.575,0.811,13.49-8.914C432.536,322.778,432.864,317.716,430.605,313.864z"/>
					<path style="fill:#31293F;" d="M426.549,329.465c-4.008-1.012-6.406-0.457-8.079,3.128c-2.222-2.4-6.751-2.024-8.33,0.691
						c-0.815-2.03-2.112-3.687-3.997-4.872c-3.241-2.038-6.3-1.95-8.76-0.003c0,0-2.538-4.442-8.639-4.61
						c-1.885-0.052-6.644,0.192-8.424,7.768c-0.516,2.194-0.181,4.947,1.967,5.913c-2.042,3.177-3.366,7.042-2.488,10.787
						c0.878,3.746,4.493,7.119,8.386,6.826c0.908,4.172,5.475,7.372,9.771,6.846c0.474-0.058,0.977-0.151,1.419,0.048
						c0.525,0.235,0.791,0.799,1.082,1.286c1.386,2.318,4.241,3.613,6.95,3.573c2.709-0.04,5.249-1.261,7.259-2.958
						c0.469-0.396,0.936-0.831,1.536-1.003c0.639-0.183,1.334-0.041,2.006,0.027c4.036,0.411,8.063-2.239,9.114-5.998
						c5.78,0.114,11.036-4.619,11.349-10.22c1.873-0.515,4.295-2.151,4.754-6.159c0.318-2.776-1.01-4.147-1.01-4.147
						c2.62-3.001,4.394-9.312-1.986-13.004c-2.007-1.161-3.905-5.962-5.971-5.823C426.841,318.072,425.199,326.491,426.549,329.465z
						"/>
				</g>
				<path style="fill:#DDCFC7;" d="M246.097,399.884c0,41.47,37.593,49.032,83.966,49.032c46.373,0,83.966-7.562,83.966-49.032
					c0-41.471-37.593-75.089-83.966-75.089C283.689,324.795,246.097,358.413,246.097,399.884z"/>
				<path style="fill:#C9BCB5;" d="M330.062,324.795c19.847,0,38.072,6.172,52.443,16.467c-8.311,7.192-38.838,0.109-52.443-1.21
					c-30.162-2.924-54.646,13.368-61.676,20.559c-14.481,14.813-25.351,36.752-16.048,63.82c-4.012-6.444-6.243-14.49-6.243-24.547
					C246.096,358.413,283.689,324.795,330.062,324.795z"/>
				<g>
					<path style="fill:#BD8368;" d="M184.265,443.202c0,0,0.757-1.569,2.097-2.02c1.339-0.451,2.573-1.685,4.636-2.361
						c2.063-0.676,11.838-3.271,15.382-5.742c3.421-2.385,3.934-6.556,3.962-7.567c-0.075-2.638-0.306-5.357-0.754-8.091
						c-0.081-0.491-0.15-1.088-0.215-1.73c1.321-0.159,2.653-0.318,4.015-0.463c3.039-0.324,6.099-0.449,9.15-0.582
						c-0.064,0.888-0.15,1.677-0.264,2.332c-0.748,4.264,0.586,12.121,0.701,12.877c0.55,3.642,3.802,8.692,3.911,11.474
						c0.131,3.36-2.025,4.148-5.333,4.378c-3.308,0.23-15.215-0.195-22.077,0.042c-6.862,0.237-12.8,0.938-14.853,0.093
						C182.569,444.998,182.758,443.205,184.265,443.202z"/>
					<path style="fill:#313858;" d="M302.321,296.845c4.472,10.976,13.678,24.697-3.39,38.779
						c-9.746,8.041-22.555,14.902-37.667,16.737c-15.113,1.834-38.371,9.727-38.371,9.727s3.701,12.317,1.743,32.03
						c-1.958,19.713-2.439,29.456-2.439,29.456s-6.904,2.612-12.4,0.019c0,0-8.26-41.06-11.03-55.277
						c-3.74-19.197,3.201-28.077,9.212-31.716c11.561-7,45.952-30.838,54.653-33.755
						C288.218,294.268,302.321,296.845,302.321,296.845z"/>
				</g>
				<path style="fill:#CC272F;" d="M388.148,335.427c0,0,3.424-10.64-3.261-16.016c-6.685-5.376-18.531-10.625-19.532-15.582
					c-2.493-12.346,13.939-0.92,17.638,1.088l-2.311-2.117c0,0-6.361-3.886-11.513-6.507c-5.151-2.621-12.304-6.658-18.834-5.899
					c-6.531,0.759-6.581,9.635-12.241,9.541c-18.881-0.312-27.658-2.358-36.151-3.899c-4.029-0.731-6.881-2.454-14.216,13.422
					c-6.677,14.454,0.469,28.32,4.35,31.247c11.922-4.492,17.654-9.991,38.59-7.332c29.231,3.712,40.193,8.163,47.144,7.236
					C386.653,339.429,388.148,335.427,388.148,335.427z"/>
				<path style="fill:#BD8368;" d="M386.434,327.029c3.896,4.135,7.09,8.45,11.625,11.128c4.535,2.677,28.793,14.314,32.653,16.832
					c3.86,2.517,9.772,7.659,15.036,14.787s12.654,19.911,15.959,21.763c3.305,1.851,12.072,3.213,14.515,3.435
					c2.443,0.222,3.931,1.465,2.936,2.655c-0.995,1.19-4.499,0.183-6.555,0.587c-2.056,0.405-2.922,1.804-2.922,1.804
					s2.208,4.978,4.261,7.603c2.052,2.624,8.235,5.87,8.848,7.797c0.613,1.927-2.891,0.92-2.891,0.92s-2.216,1.08-3.953,0.134
					c-1.737-0.946-3.458-2.711-3.458-2.711s-1.347,1.174-3.713-0.879c-2.366-2.053-4.578-4.002-6.888-7.044
					c-2.31-3.042-5.721-6.701-10.87-11.305c-5.148-4.605-18.619-19.981-24.481-23.829c-5.862-3.848-21.124-13.163-28.679-15.129
					c-7.555-1.966-16.874-7.023-23.283-11.57c-6.41-4.547-15.523-6.703-18.18-10.54c-2.657-3.837,4.571-17.81,14.977-16.595
					C381.778,318.085,383.168,323.564,386.434,327.029z"/>
			</g>
			<g>
				<path style="fill:#EDBFB0;" d="M134.877,203.649c-2.57,1.575-5.079,3.342-6.662,2.585c-0.914-0.437,0.043-3.641,0.043-3.641
					s-1.369,0.543-2.309,1.762c-1.049,1.36-1.22,2.976-1.682,4.632c-0.19,0.68-1.22,1.476-2.365,2.18
					c-7.544,3.262-15.458,4.396-24.434,10.481c2.626,4.437-4.491,11.673-1.057,15.478c1.364-0.701,9.518-5.06,11.167-6.047
					c7.573-4.533,13.995-8.431,18.799-11.37c1.006-0.492,2.092-0.982,3.173-1.395c2.299-0.876,5.546-1.435,6.713-1.845
					c1.361-0.479,2.7-1.152,3.966-1.956c-1.358-2.275-2.515-4.67-3.68-7.109C135.959,206.17,135.362,204.93,134.877,203.649z"/>
				<path style="fill:#EDBFB0;" d="M101.533,223.356c-0.814-0.402-1.58-0.761-2.244-1.03c0,0-4.324-20.739-5.322-29.928
					c-7.126,0.334-12.102-0.121-19.066-1.711c0.432,3.662,1.494,8.103,2.962,13.507c4.016,14.787,8.488,30.799,12.142,32.93
					c2.669,1.557,5.894,0.307,9.424-1.692C100.193,230.301,99.753,228.257,101.533,223.356z"/>
				<path style="fill:#EDBFB0;" d="M133.065,211.004c0.407-0.678,1.364-7.028,1.812-7.355c0.448-0.327,2.603-2.213,3.205-2.897
					s1.672-0.594,1.943,0.581c0.271,1.175,0,1.74,0,1.74s1.039,0.339,1.13,1.695c0.09,1.356-0.271,2.305-0.271,2.305
					s1.413,0.045,1.181,1.491c-0.232,1.446-0.458,1.988-0.458,1.988s1.085,0.553,0.949,1.61c-0.136,1.057-1.688,1.96-2.327,2.35
					c-0.639,0.39-5.627,0-5.627,0L133.065,211.004z"/>
				<path style="fill:#4EA9D0;" d="M78.963,209.833c-0.825-2.47-2.608-7.491-3.298-10.011c-4.044-14.779-0.301-20.031,2.223-24.615
					c3.019-5.482,9.326-8.64,9.326-8.64l8.105,16.824c0.318,4.558,1.295,11.657,2.148,17.361
					C92.007,204.214,85.296,209.153,78.963,209.833z"/>
				<path style="fill:#273C54;" d="M97.467,200.752c0,0-13.139,4.997-20.438,4.609l3.076,9.41c0,0,11.665-1.009,19.324-6.55
					L97.467,200.752z"/>
			</g>
			<path style="fill:#EDBFB0;" d="M204.31,250.171c0.205,0.11,2.264,2.411,2.775,3.881c0.511,1.47,0.256,4.026,1.342,4.793
				c1.086,0.767,1.598,0,1.598,0s-0.575,2.556,1.214,3.068c1.79,0.511,2.429-0.767,2.429-0.767s0.192,1.406,1.726,1.214
				c1.534-0.192,1.797-0.935,1.797-0.935s0.499,0.75,1.458,0.239c0.959-0.511,1.271-0.802,0.823-3.342
				c-0.447-2.541-0.996-3.061-1.962-3.609c-0.727-0.412-1.413-0.15-1.413-0.15s0.034-2.27-1.397-2.757
				c-0.868-0.295-1.701-0.035-1.701-0.035s-0.39-1.426-2.031-1.892c-1.284-0.365-1.971,0.168-1.971,0.168s-0.187-0.854-1.849-1.173
				C205.487,248.556,204.31,250.171,204.31,250.171z"/>
		</g>
	</g>
</g>
</svg>
