<?xml version="1.0" encoding="utf-8"?>
<!-- Generator: Adobe Illustrator 27.5.0, SVG Export Plug-In . SVG Version: 6.00 Build 0)  -->
<svg version="1.1" xmlns="http://www.w3.org/2000/svg" xmlns:xlink="http://www.w3.org/1999/xlink" x="0px" y="0px"
	 viewBox="0 0 500 500" style="enable-background:new 0 0 500 500;" xml:space="preserve">
<g id="BACKGROUND">
	<g>
		<rect style="fill:#FFFFFF;" width="500" height="500"/>
		<g>
			<g>
				<defs>
					<rect id="SVGID_1_" x="72.699" y="55.056" width="350.878" height="196.746"/>
				</defs>
				<clipPath id="SVGID_00000108278259002577163050000004480564976121336718_">
					<use xlink:href="#SVGID_1_"  style="overflow:visible;"/>
				</clipPath>
				
					<rect x="72.699" y="50.106" style="clip-path:url(#SVGID_00000108278259002577163050000004480564976121336718_);fill:#F3F3F3;" width="350.878" height="208.714"/>
				<g style="clip-path:url(#SVGID_00000108278259002577163050000004480564976121336718_);">
					<g>
						<rect x="38.687" y="118.154" style="fill:#FFFFFF;" width="415.239" height="5.505"/>
					</g>
				</g>
				<g style="clip-path:url(#SVGID_00000108278259002577163050000004480564976121336718_);">
					<g>
						<rect x="363.661" y="49.849" style="fill:#FFFFFF;" width="5.791" height="213.921"/>
					</g>
					<g>
						<rect x="126.825" y="49.849" style="fill:#FFFFFF;" width="5.791" height="213.921"/>
					</g>
				</g>
				<g style="clip-path:url(#SVGID_00000108278259002577163050000004480564976121336718_);">
					<rect x="38.055" y="152.249" style="fill:#FFFFFF;" width="415.871" height="2.966"/>
					<rect x="38.055" y="161.148" style="fill:#FFFFFF;" width="415.871" height="2.966"/>
					<rect x="38.055" y="170.046" style="fill:#FFFFFF;" width="415.871" height="2.966"/>
					<rect x="38.055" y="178.945" style="fill:#FFFFFF;" width="415.871" height="2.966"/>
					<rect x="38.055" y="187.843" style="fill:#FFFFFF;" width="415.871" height="2.966"/>
					<rect x="38.055" y="205.209" style="fill:#FFFFFF;" width="415.871" height="2.966"/>
					<rect x="38.055" y="214.107" style="fill:#FFFFFF;" width="415.871" height="2.966"/>
					<rect x="38.055" y="223.006" style="fill:#FFFFFF;" width="415.871" height="2.966"/>
					<rect x="38.055" y="196.742" style="fill:#FFFFFF;" width="415.871" height="2.966"/>
				</g>
			</g>
		</g>
	</g>
</g>
<g id="OBJECTS">
	<path style="fill:#E2E2E2;" d="M462.22,442.325c0-3.656-95.848-6.619-214.081-6.619s-214.081,2.964-214.081,6.619
		c0,3.656,95.848,6.619,214.081,6.619S462.22,445.981,462.22,442.325z"/>
	<g>
		<path style="fill:#40746E;" d="M58.569,359.811c-0.063-0.332-0.131-0.662-0.194-0.995c-0.433-9.251-15.688-60.605-13.226-98.695
			c1.084-16.772,12.795-48.745,12.795-48.745s11.466,28.876,12.224,45.957c1.427,32.164-3.079,73.723-6.058,102.072
			C62.267,359.508,60.419,359.636,58.569,359.811z"/>
		<path style="fill:#529665;" d="M57.486,384.7c-1.842,0.02-0.932-0.045-2.768,0.061c-2.942-31.608-22.086-60.466-26.888-92.503
			c-4.044-26.978,0.466-48.725,0.466-48.725s21.592,27.277,27.646,58.64C60.328,324.893,58.005,380.146,57.486,384.7z"/>
		<path style="fill:#96CF90;" d="M34.669,297.81c8.433,17.439,16.449,51.921,20.369,78.947c-0.514,0.068-1.026,0.142-1.535,0.228
			c-8.299-28.816-26.181-56.646-34.995-75.444c-2.927-6.242-9.978-26.415-9.978-26.415S25.18,278.187,34.669,297.81z"/>
		<path style="fill:#96CF90;" d="M58.835,377.001c-4.385-34.286,0.538-77.005,11.513-98.81c8.33-16.55,23.869-34.102,23.869-34.102
			s-1.96,28.689-3.463,39.992c-3.891,29.269-26.062,55.584-30.037,92.841L58.835,377.001z"/>
		<g>
			<path style="fill:#529665;" d="M58.494,374.136c0.383-1.755,0.791-3.495,1.238-5.211C64.278,348.6,73.778,321,84.331,300.553
				c8.938-17.318,26.712-27.793,26.712-27.793s-3.571,27.367-16.731,45.73c-11.222,15.66-25.122,32.971-33.234,56.172
				C59.685,374.318,59.914,374.387,58.494,374.136z"/>
		</g>
		<polygon style="fill:#313858;" points="77.449,440.706 39.54,440.706 33.651,359.154 83.337,359.154 		"/>
	</g>
	<g>
		<rect x="291.127" y="363.405" style="fill:#DDCFC7;" width="102.31" height="79.662"/>
		<rect x="291.127" y="363.405" style="fill:#C9BCB5;" width="102.31" height="25.211"/>
		<path style="fill:#E5DCD2;" d="M371.253,322.798h-57.942c-17.814,0-32.255,14.441-32.255,32.255v6.988
			c0,3.864,3.132,6.996,6.995,6.996h108.46c3.863,0,6.996-3.132,6.996-6.996v-6.988
			C403.507,337.239,389.066,322.798,371.253,322.798z"/>
	</g>
	<g>
		<g>
			<path style="fill:#BD8368;" d="M245.7,412.159c0,0,9.838,1.141,13.962,0.955c0,0-1.015,15.585-1.966,18.882
				c-0.951,3.297-1.587,5.38-1.587,5.38l-15.955-5.889c0,0,1.769-3.035,2.803-5.97C243.991,422.581,245.7,412.159,245.7,412.159z"/>
			<g>
				<path style="fill:#313858;" d="M264.095,441.096c-2.668,3.185-11.948,1.679-24.95,2.34c-13.002,0.661-21.78,0.523-21.546-1.562
					c0.111-0.937,0.211-1.813,0.654-2.608c0.57-0.983,4.115-4.171,6.443-4.831c4.195-1.201,8.859-5.605,11.507-7.483
					c2.659-1.865,3.879-2.89,5.263-4.086c2.211-1.905,7.383,0.074,12,1.03c4.628,0.945,4.212,0.041,6.197-0.838
					c1.64-0.723,4.249,3.051,4.408,6.954c0.025,0.813,0.051,1.613,0.087,2.389C264.343,436.905,266.752,437.91,264.095,441.096z"/>
			</g>
		</g>
		<g>
			<path style="fill:#BD8368;" d="M329.838,412.159c0,0,9.838,1.141,13.962,0.955c0,0-1.015,15.585-1.966,18.882
				c-0.951,3.297-1.586,5.38-1.586,5.38l-15.955-5.889c0,0,1.769-3.035,2.803-5.97C328.129,422.581,329.838,412.159,329.838,412.159
				z"/>
			<g>
				<path style="fill:#313858;" d="M348.232,441.096c-2.668,3.185-6.346,1.679-19.348,2.34c-13.002,0.661-20.807,0.523-20.573-1.562
					c0.111-0.937,0.211-1.813,0.654-2.608c0.569-0.983,5.077-5.06,7.725-6.938c2.659-1.865,7.528-8.267,8.911-9.462
					c2.211-1.905,7.383,0.074,12.001,1.03c4.628,0.945,4.212,0.041,6.197-0.838c1.64-0.723,4.249,3.051,4.408,6.954
					c0.025,0.813,0.051,1.613,0.087,2.389C348.481,436.905,350.89,437.91,348.232,441.096z"/>
			</g>
		</g>
		<path style="fill:#428FB0;" d="M317.808,283.311c-6.198,0.443-41.602,24.643-49.634,28.949
			c-5.681,3.046-8.854,7.969-11.068,15.938c-2.214,7.969-17.961,84.26-17.961,84.26s11.829,4.553,31.751,6.711l19.15-71.741
			c0,0,26.538-19.733,41.59-23.717c15.052-3.984,28.231-36.969,28.231-36.969l-19.038-5.644L317.808,283.311z"/>
		<path style="fill:#428FB0;" d="M351.157,282.316c-1.415,0.793-2.607,17.826-6.838,20.806
			c-11.974,8.436-31.185,22.653-34.773,25.786c-4.856,4.24-4.623,10.979-3.235,19.133c1.387,8.154,12.514,72.692,12.514,72.692
			s14.593,6.244,32.546-7.235l-13.682-64.949c0,0,23.798-6.05,35.725-16.061c11.927-10.01,10.445-19.257,8.366-29.002
			c-1.049-4.92-8.595-18.195-8.595-18.195L351.157,282.316z"/>
		<path style="fill:#1F1E2F;" d="M336.893,128.921c-0.47-2.339-3.3-10.696,0.187-13.729c2.013-1.751,3.798-1.767,5.754-0.455
			c0,0,1.171-3.86,6.517-3.388c7.36,0.649,6.333,6.298,6.333,6.298s2.434-1.037,4.921,0.225c3.216,1.632,3.589,4.172,3.37,6.762
			c-0.219,2.59-2.19,3.162-2.19,3.162s2.602,1.118,2.747,3.44c0.27,4.326-4.641,2.921-4.641,2.921s0.783,4.125-1.343,6.181
			c-4.144,4.007-9.097,0.077-9.097,0.077c-2.023,1.076-6.908-3.795-6.908-3.795L336.893,128.921z"/>
		<path style="fill:#1F1E2F;" d="M336.82,162.933c2.103-0.56,9.325-2.457,12.721-6.928c9.534-12.551-0.413-24.616-4.208-29.832
			c-5.97-8.206-15.289-7.479-15.289-7.479l-0.702,0.032c-3.594-0.256-10.796-0.795-15.682,2.765
			c-9.381,6.836-11.081,18.666-5.029,25.88C311.489,150.777,328.856,165.054,336.82,162.933z"/>
		<g>
			<path style="fill:#BD8368;" d="M355.179,190.924c-0.687-6.233-1.383-10.431-1.383-10.431s-9.037-1.433-12.247-6.293
				c-4.652-7.043-1.573-23.922-1.573-23.922l-17.367,10.531c0,0,5.498,15.234-3.311,20.32c-3.627,2.094-5.027,3.89-5.027,3.89
				s-1.901,4.949-1.426,11.367c6.079-0.117,14.905,11.68,20.956,10.91C341.873,206.269,347.158,192.48,355.179,190.924z"/>
		</g>
		<g>
			<path style="fill:#A4725A;" d="M324.162,172.922c5.553,0.684,11.989-3.95,14.867-13.575c0.204-4.986,0.947-9.069,0.947-9.069
				l-17.367,10.531C322.609,160.809,324.868,167.082,324.162,172.922z"/>
		</g>
		<path style="fill:#BD8368;" d="M310.716,128.768c-0.406,3.521,0.54,12.514,0.604,19.108c0.032,3.296-0.851,8.401,2.154,13.998
			c1.906,3.55,5.196,7.777,9.086,7.965c3.307,0.16,6.12-1.396,9.376-3.922c5.127-3.979,7.395-9.402,8.368-13.324
			c0.973-3.922,0.34-11.105-1.401-18.385c-1.741-7.28-6.559-10.003-12.017-10.741C321.427,122.729,310.716,128.768,310.716,128.768z
			"/>
		<path style="fill:#1F1E2F;" d="M328.149,139.603c-7.661-5.6-9.5-10.893-10.081-16.997c0,0,6.863-4.027,14.904,0.321
			c16.633,8.994,11.674,16.593,11.104,24.298C340.805,141.544,335.855,145.235,328.149,139.603z"/>
		<path style="fill:#1F1E2F;" d="M325.545,121.894c-3.393,0.492-12.691,7.335-14.448,14.374c-2.177,8.725-2.594-1.873-2.594-1.873
			l-0.11-4.71c0,0,6.799-9.095,12.443-8.822C326.48,121.136,325.545,121.894,325.545,121.894z"/>
		<path style="fill:#BD8368;" d="M290.829,215.175c-3.025,9.25-6.68,20.153-8.74,25.32c-1.251,3.138-2.298,8.353-2.298,8.353
			c-3.666,1.228-11.268,3.693-26.885,10.657c-1.5,0.669-8.145,1.448-8.171,1.461c-3.827-1.728-10.865,0.418-13.417,0.272
			c-4.449-0.255-6.969-1.807-8.85-1.13c-2.989,1.075-1.703,2.968-1.703,2.968s-3.202-0.447-4.168,0.378
			c-0.586,0.5-0.77,1.423-0.166,2.28c-1.872-0.31-3.714,0.022-3.8,1.147c-0.086,1.128,2.447,2.426,4.729,3.441
			c-1.483-0.192-2.706-0.391-3.175-0.307c-0.896,0.161-1.496,1.245-0.929,2.086c0.567,0.841,3.875,1.795,7.038,2.43
			c2.36,0.474,7.155,0.365,9.439,0.279c0.423,0.017,0.847,0.002,1.265-0.056c5.801-0.797,13.123-4.442,16.276-5.036
			c0.037-0.042,0.074-0.08,0.111-0.121c7.545-0.76,20.777-2.184,31.707-3.842c8.002-1.214,13.184-6.046,14.009-7.426
			c5.871-9.823,13.38-25.41,17.57-34.347C304.064,221.024,297.509,217.949,290.829,215.175z"/>
		<g>
			<path style="fill:#4EA9D0;" d="M302.01,239.426c2.051,0.405,3.189-2.348,5.455-2.081c5.674-11.497,10.075-17.88,10.075-17.88
				s1.72-29.51-5.049-33.961c0,0-7.269,5.334-12.862,10.908c-6.346,6.324-13.073,24.395-14.744,36.461
				C291.186,235.836,295.202,238.081,302.01,239.426z"/>
		</g>
		<g>
			<path style="fill:#313858;" d="M286.593,224.237c-1.019,3.638-1.803,6.551-2.592,9.774c3.571,2.071,13.14,7.063,22.209,7.063
				c1.627-3.678,4.072-8.922,4.072-8.922C300.879,231.574,293.979,228.312,286.593,224.237z"/>
		</g>
		<path style="fill:#4EA9D0;" d="M305.707,217.622c-0.919,3.839,0.505,10.175,5.419,15.494c0,0,1.767,9.645,1.643,14.458
			c-0.087,3.361,0.856,14.756,0.526,18.652c-1.259,14.87-3.013,22.202-3.013,22.202s10.321,4.41,27.491,4.516
			c21.749,0.135,38.551-1.877,38.551-1.877s-0.101-4.004-3.267-17.595c-1.297-5.569-3.671-26.189-3.648-32.51
			c0.086-23.829,5.691-23.33,5.553-27.501c-0.272-8.27-5.111-21.689-9.498-26.637c-4.88-5.505-21.37-10.352-21.37-10.352
			s-0.732,5.698-3.367,11.527c-2.844,6.293-7.486,8.4-9.501,8.654c-12.505,1.579-11.117-16.346-11.117-16.346l-7.618,5.196
			C312.492,185.504,309.343,202.435,305.707,217.622z"/>
		
			<rect x="314.081" y="214.244" transform="matrix(0.9938 -0.1108 0.1108 0.9938 -21.9862 36.9398)" style="fill:#FFFFFF;" width="14.713" height="4.17"/>
		<path style="fill:#BD8368;" d="M340.593,144.12c0,0,0.992-3.184,2.896-1.287c1.904,1.897,0.166,6.062-1.51,7.912
			c-1.676,1.849-3.923,1.474-3.923,1.474L340.593,144.12z"/>
		<path style="fill:none;stroke:#A2A5AD;stroke-width:5;stroke-miterlimit:10;" d="M120.609,443.067v-93.969
			c0-5.782-3.847-10.469-8.592-10.469H76.271c-4.745,0-8.592,4.687-8.592,10.469v93.969"/>
		<path style="fill:none;stroke:#A2A5AD;stroke-width:5;stroke-miterlimit:10;" d="M435.818,443.067v-93.969
			c0-5.782-3.847-10.469-8.592-10.469H391.48c-4.745,0-8.592,4.687-8.592,10.469v93.969"/>
		<rect x="39.195" y="316.539" style="fill:#BEC1CB;" width="385.851" height="20.748"/>
		<rect x="425.046" y="316.539" style="fill:#A2A5AD;" width="32.035" height="20.748"/>
		<g>
			<path style="fill:#FEC1B2;" d="M81.923,315.345c1.007-0.566,3.892-0.76,5.129-1.177c2.95-0.996,6.243-1.923,9.174-2.733
				c4.16-1.151,4.548-2.563,11.247-3.774c6.699-1.211,9.846-13.619,13.519-22.34c7.621-18.096,14.485-28.084,18.539-35.389
				s20.467-40.347,20.467-40.347c1.414-2.838,5.32-14.34,15.048-13.075c5.391,0.701,8.61,8.93,5.518,17.237
				c-2.526,6.785-23.974,31.554-29.027,44.685c-2.814,7.314-8.577,16.338-15.023,25.506c-3.96,5.633-16.599,24.395-17.886,27.489
				c-1.756,4.222-3.686,6.163-5.837,7.122c-2.15,0.96-13.249-0.307-16.25-0.137c-5.663,0.32-5.436-0.197-9.135,0.389
				c-2.195,0.348-2.8-1.505-3.88-1.367C80.776,317.786,80.41,316.195,81.923,315.345z"/>
			<g>
				<path style="fill:#EAAD96;" d="M382.5,317.13l-0.016-0.099c-11.687,0.389-30.312,1.1-36.353,0.97
					c0.472-4.937,1.017-9.865,1.711-14.775c6.158,0.925,34.026,1.154,35.781,1.385c1.786,0.009,3.27,0.01,4.347,0.006
					c0.003-0.001,0.007-0.001,0.01-0.002c2.142-0.676,3.219-2.292,5.846-6.167c2.627-3.875,5.669-14.173,6.438-16.358
					c0.77-2.185,2.057-3.569,2.568-4.988c0.512-1.42,2.11-2.344,2.11-2.344c0.073-1.552,1.868-1.911,2.613,0.124
					c0.746,2.035-0.23,8.209-0.787,15.292c-0.557,7.083-0.69,19.296-1.074,22.721c-0.384,3.425-1.27,5.716-4.611,5.892
					c-3.341,0.175-6.165-1.18-8.582-1.739c-0.662-0.153-1.359-0.228-2.112-0.258c-0.457,0.002-1.835,0.043-3.841,0.107
					C385.364,316.97,384.044,317.06,382.5,317.13z"/>
				<path style="fill:#252B42;" d="M156.509,277.561c-0.182,11.802-6.497,36.201,15.52,40.674c15.836,3.217,26.77,2.161,46.15,1.697
					c15.672-0.376,78.173-2.13,78.173-2.13s29.738,2.152,49.371,2.783c19.632,0.631,36.777-3.454,36.777-3.454
					s2.028-6.689,0.255-12.643c0,0-56.158-6.4-65.326-7.83c-12.779-1.994-41.774-9.977-55.426-11.948
					c-13.652-1.971-55.267-8.432-64.676-8.151C187.916,276.839,156.509,277.561,156.509,277.561z"/>
			</g>
			<path style="fill:#EAAD96;" d="M297.22,271.534c5.714,6.289,17.518,15.728,21.011,19.727c1.783,2.042,3.718,3.921,5.708,5.64
				c0.806,0.62,12.507,9.607,16.363,11.964c3.995,2.441,14.425,4.993,16.644,5.659c2.219,0.666,3.662,1.886,5.104,2.33
				c1.443,0.444,2.441,1.997,2.441,1.997c1.553,0,1.997,1.775,0,2.616c-1.997,0.841-8.211,0.158-15.312-0.064
				c-7.102-0.222-19.307,0.222-22.747,0c-3.44-0.222-5.77-0.999-6.103-4.327c-0.276-2.756-0.134-5.88-2.545-8.566
				c-0.501-0.558-5.59-6.458-9.462-8.626c-4.927-2.759-15.309-12.479-21.767-17.981C290.043,278.375,293.579,274.901,297.22,271.534
				z"/>
			<path style="fill:#313858;" d="M148.87,283.22c4.301,10.992,5.271,35.454,27.734,35.932s36.217-12.321,48.643-21.88
				c12.426-9.558,43.532-34.888,43.532-34.888s5.544,11.514,20.36,24.411c14.816,12.897,23.33,17.69,23.33,17.69
				s6.58-4.257,8.969-9.992c0,0-22.859-32.216-30.256-44.534c-6.659-11.088-15.667-19.699-29.049-16.354
				c-13.382,3.345-60.783,25.435-69.385,29.258C184.145,266.685,148.87,283.22,148.87,283.22z"/>
			<path style="fill:#531717;" d="M170.657,190.19c2.553,5.246,14.113,3.358,23.126-6.757c9.013-10.114,15.933-27.672,7.814-40.574
				c-8.119-12.902-20.545,11.013-24.954,23.815C172.234,179.476,170.657,190.19,170.657,190.19z"/>
			<g>
				<path style="fill:#EAAD96;" d="M148.87,186.636c0,0,7.848-10.439,13.334-18.63c5.099-7.612,4.871-12.797,4.944-13.387
					c0.004-0.036,0.008-0.073,0.008-0.073l5.374-15.255c0,0,6.719-6.093,15.227-1.038c8.508,5.055,11.653,8.665,12.164,12.849
					c0.43,3.524-1.051,7.527-1.9,9.286c-0.848,1.759-2.591,2.974-2.448,5.082c0.143,2.108,2.18,6.712,2.025,7.801
					c-0.155,1.089-3.707,1.438-4.329,1.904c-0.622,0.467-4.704,4.812-6.527,7.199c-1.391,1.822-4.106-1.083-8.575-1.848
					c-2.18-0.373-3.752,0.613-5.015,2.33c-1.56,3.339,1.639,6.113,3.707,8.662c0,0,10.468,14.05,10.181,20.475
					c-0.103,2.311-2.178,9.666-2.178,9.666s-7.902,4.203-16.852,1.347c-8.197-2.615-16.005-28.243-15.492-36.841L148.87,186.636z"/>
				<path style="fill:#CC272F;" d="M146.88,187.625c0,0,10.365-3.905,16.01,2.451c5.645,6.356,3.049,20.141,15.029,22.734
					c15.381,3.329-0.633-19.77-2.8-23.333l4.963,3.016c0,0,3.607,7.046,6.451,12.017c2.844,4.971,7.187,11.854,6.752,18.355
					c-0.434,6.501-11.083,11.647-10.649,17.24c0.434,5.592,10.111,22.757,10.111,22.757s-1.379,13.799-15.348,24.056
					c-10.957,8.046-19.572,7.125-27.468,6.904c-2.564-10.155-13.192-30.154-13.08-49.182c0.172-29.198-3.115-50.144,1.01-55.737
					C141.987,183.311,146.88,187.625,146.88,187.625z"/>
			</g>
			<path style="fill:#531717;" d="M167.837,186.243c1.466-13.385-1.011-22.709,6.927-27.741c2.145-1.36,9.292-2.081,11.953-2.5
				c14.466-2.274,14.88-13.143,14.88-13.143s-5.407-8.574-17.484-11.823c-12.077-3.249-26.163,1.247-32.419,22.312
				c-4.233,14.256-10.199,19.405-17.131,32.781c-9.997,19.289,6.932,24.088,6.932,24.088c14.025-5.575-0.985-1.748,1.398-14.473
				c0.404-2.153,10.423-3.88,15.86-3.041C164.461,193.584,167.156,192.454,167.837,186.243z"/>
			<path style="fill:#EAAD96;" d="M176.211,158.97c0,0-0.56-5.544-5.044-4.334c-4.484,1.21-3.655,8.583-0.481,12.627L176.211,158.97
				z"/>
			<path style="fill:#FEC1B2;" d="M50.727,316.896c1.025-0.546,4.157-2.026,5.436-2.39c3.052-0.868,6.473-1.634,9.519-2.301
				c4.323-0.946,13.877-1.062,20.888-1.878c7.011-0.816,9.39-14.235,12.611-23.554c6.684-19.336,13.193-29.804,16.927-37.534
				c3.734-7.731,18.589-42.844,18.589-42.844c1.28-3.015,4.535-15.379,14.95-13.234c5.771,1.188,9.822,10.498,7.185,19.406
				c-2.154,7.276-22.989,32.891-27.333,46.959c-2.42,7.836-7.834,17.327-13.962,26.924c-3.765,5.896-14.758,30.701-17.939,32.016
				c-3.181,1.316-11.654,4.05-13.861,4.94c-2.207,0.89-5.689-0.484-8.836-0.269c-3.147,0.215-9.352-0.189-9.116-1.594
				c0.236-1.405,1.3-2.665,4.761-2.656c3.461,0.009,7.179-1.485,7.179-1.485s-4.094-0.581-8.921-0.483
				c-1.92,0.039-5.739,0.179-9.431,0.718c-2.389,0.348-5.651,1.613-6.786,1.682C49.699,319.496,49.188,317.716,50.727,316.896z"/>
		</g>
		<path style="fill:#BD8368;" d="M309.704,257.249c0,0-6.17,1.893-7.726,0.845c-1.556-1.048-2.843-2.268-4.677-2.655
			c-1.645-0.347-2.52,0.31-2.52,0.31l2.109,3.889c0,0-8.202,1.98-10.526,1.814c-2.324-0.166-9.178-0.15-9.781,0.663
			c-0.603,0.814,0.409,1.992,1.527,2.376c0,0-5.218-0.849-5.514,0.026c-0.296,0.874,0.753,2.955,2.937,3.237
			c0,0-0.511,1.492,0.643,2.236c1.154,0.744,3.403,1.036,3.403,1.036s-1.156,0.76-0.229,1.411c0.927,0.65,3.464,1.104,7.05,1.594
			c3.586,0.49,7.559,0.068,10.917-1.227c1.26-0.486,4.353-2.323,6.882-3.223c4.211-1.499,9.201-2.253,9.201-2.253L309.704,257.249z"
			/>
		<path style="fill:#BD8368;" d="M353.596,213.442c-2.71,9.718-11.056,31.283-11.056,31.283
			c-8.082,1.81-27.559,10.835-38.441,13.923c0.86,3.336,1.645,6.69,2.37,10.058c6.192-0.978,14.808-2.369,25.017-4.088
			c10.367-1.745,14.483-4.031,19.692-6.017c4.314-1.645,10.707-14.379,17.662-29.589c2.542-5.559,4.476-10.152,5.593-14.019
			C366.65,215.464,361.21,215.069,353.596,213.442z"/>
		<path style="fill:#4EA9D0;" d="M366.652,234.887c1.328-2.513,4.142-7.604,5.332-10.194c6.985-15.197,3.889-21.518,1.986-26.904
			c-2.276-6.441-8.506-10.964-8.506-10.964l-11.721,16.676c-1.154,4.852-3.468,12.324-5.402,18.314
			C353.605,226.515,359.953,233.027,366.652,234.887z"/>
		<path style="fill:#313858;" d="M348.341,221.815c0,0,13.26,7.719,21.19,8.6l-4.987,9.587c0,0-12.383-3.162-19.645-10.492
			L348.341,221.815z"/>
	</g>
</g>
</svg>
